<?xml version="1.0" encoding="utf-8"?>
<!-- Generator: Adobe Illustrator 27.5.0, SVG Export Plug-In . SVG Version: 6.00 Build 0)  -->
<svg version="1.1" xmlns="http://www.w3.org/2000/svg" xmlns:xlink="http://www.w3.org/1999/xlink" x="0px" y="0px"
	 viewBox="0 0 500 500" style="enable-background:new 0 0 500 500;" xml:space="preserve">
<g id="BACKGROUND">
	<rect style="fill:#F2B8DC;" width="500" height="500"/>
</g>
<g id="OBJECTS">
	<g>
		<path style="opacity:0.28;fill:#FFFFFF;" d="M500,62.75V500H93.58c18.55-78.4,135.04-61.73,135.04-191.69
			c0-36.35-19.38-72.74-19.38-145.66c0-102.7,59.95-151.08,146.56-151.08c53.39,0,94.71,20.46,141.22,49.27
			C498.03,61.46,499.02,62.1,500,62.75z"/>
		<path style="opacity:0.28;fill:#FFFFFF;" d="M151.081,215.222c6.036,0.887,12.046,3.31,17.773,7.619
			c25.383,19.1,35.508,54.52,35.508,84.94c0,46.04-31.486,89.31-60.817,89.31c-26.387,0-60.669-31.819-60.669-90.793
			c0-24.094,6.09-49.755,21.426-68.848C115.992,222.896,133.647,212.658,151.081,215.222z"/>
		<path style="opacity:0.28;fill:#FFFFFF;" d="M217.436,81.562c0.002-29.666,33.973-31.321,32.518-52.691
			c-0.58-8.514-10.542-11.961-19.204-11.372c-18.004,1.226-42.178,23.446-40.237,51.948c1.047,15.383,12.438,21.245,19.787,20.744
			C214.334,89.916,217.436,87.396,217.436,81.562z"/>
	</g>
	<g>
		<defs>
			<rect id="SVGID_1_" width="500" height="500"/>
		</defs>
		<clipPath id="SVGID_00000125561338874549601250000011374163999683392436_">
			<use xlink:href="#SVGID_1_"  style="overflow:visible;"/>
		</clipPath>
		<g style="clip-path:url(#SVGID_00000125561338874549601250000011374163999683392436_);">
			<path style="fill:#D943B2;" d="M535.971,250.687c-65.929,38.245-148.196,56.888-214.547,56.888
				c-133.876,0-191.61-128.559-245.297-237.024c-10.052,20.005-16.445,41.244-12.488,65.973
				c54.334,136.235,108.796,238.641,270.17,238.641c65.282,0,171.299-18.126,233.868-61.752
				C553.985,281.826,543.484,263.417,535.971,250.687z"/>
			<path style="fill:#CF34A4;" d="M156.934,71.193c10.415,26.929,4.897,13.156,12.071,37.513
				c0,140.851-142.756,264.186-142.756,431.384c0,7.242,0.319,14.463,1.085,21.659c-22.83-9.729-45.832-21.659-63.926-32.76
				c-0.208-6.535-0.27-12.12-0.27-15.574c0-171.322,210.06-295.442,167.55-454.447C127.632,47.535,156.934,71.193,156.934,71.193z"
				/>
			<path style="fill:#DE5ABB;" d="M100.489,29.017c52.064-6.638,66.152,51.796,68.516,79.689
				c-7.951-18.887-30.062-40.178-64.451-35.804c-42.953,5.463-40.915,63.622-40.915,63.622
				C63.41,136.561,23.683,38.809,100.489,29.017z"/>
		</g>
		<g style="clip-path:url(#SVGID_00000125561338874549601250000011374163999683392436_);">
			<g>
				<g>
					<path style="fill:#F596D1;" d="M166.25,522.903c-3.414-0.325-6.834-0.514-10.258-0.703c-0.046-0.003-0.053,0.066-0.007,0.071
						c3.147,0.315,6.285,0.706,9.43,1.039c1.442,0.153,2.837,0.377,4.257,0.661c1.047,0.21,2.38,0.238,3.352,0.776
						c0.189,0.502,0.368,1.015,0.551,1.524l-0.121,0.217c-0.108-0.434-0.197-0.877-0.294-1.317c-1.194,0.265-2.63,0.576-3.777,0.646
						c-14.191,1.223-27.689,1.521-40.858-4.234c2.382-0.849,5.03-1.374,7.569-1.808c11.312-1.682,24.449-0.532,35.294,3.944
						c-0.112-0.015-0.221-0.029-0.336-0.046C169.445,523.419,167.873,523.057,166.25,522.903z"/>
				</g>
				<g>
					<path style="fill:#F596D1;" d="M173.804,524.382c0.298-1.415-0.052-2.963-0.027-4.393c0.035-1.993,0.172-3.965,0.427-5.942
						c0.507-3.938,1.146-7.857,1.564-11.807c0.007-0.067-0.095-0.077-0.103-0.011c-0.831,6.719-2.043,13.383-2.476,20.138
						c-0.274-0.811-0.577-1.616-0.905-2.413c-1.245-10.58,0.382-22.081,3.933-31.685c0.946-2.395,2.002-4.88,3.322-7.036
						c2.932,14.069-0.127,27.218-4.234,40.858c-0.275,1.005-0.792,2.196-1.262,3.242
						C173.969,525.016,173.891,524.698,173.804,524.382z"/>
				</g>
				<g>
					<path style="fill:#F596D1;" d="M151.968,507.956c-5.072,0.792-10.181,1.574-15.322,1.688c-0.016,0.001-0.02,0.026-0.003,0.026
						c4.685,0.08,9.288-0.484,13.916-1.166c2.431-0.358,4.864-0.751,7.307-1.015c1.683-0.182,4.05-0.759,5.731-0.436
						c0.034,0.006,0.062,0.001,0.091-0.002c0.101,0.139,0.191,0.278,0.289,0.417c-1.073,0.436-2.304,0.92-3.334,1.162
						c-13.78,3.605-27.033,6.181-40.984,2.736c2.202-1.24,4.724-2.204,7.153-3.063c11.032-3.625,24.417-4.7,35.986-1.966
						c-1.166,0.036-2.466,0.409-3.533,0.558C156.829,507.235,154.397,507.576,151.968,507.956z"/>
				</g>
				<g>
					<path style="fill:#F596D1;" d="M164.767,507.001c-0.192-0.264-0.393-0.52-0.587-0.782c0.132-0.011,0.26-0.093,0.292-0.26
						c0.637-3.394,0.561-7.057,0.933-10.505c0.4-3.71,0.841-7.41,1.411-11.099c0.004-0.024-0.035-0.028-0.039-0.004
						c-1.224,6.952-2.081,13.928-2.856,20.937c-2.313-11.665-0.75-25.008,3.279-35.906c0.946-2.396,2.002-4.88,3.322-7.036
						c2.932,14.068-0.127,27.219-4.233,40.858c-0.313,1.142-0.94,2.536-1.453,3.669c0.089,0.025,0.18,0.045,0.268,0.07l-0.278,0.142
						C164.807,507.056,164.787,507.028,164.767,507.001z"/>
				</g>
				<g>
					<path style="fill:#F596D1;" d="M155.965,495.874c-0.576-2.073-0.589-4.435-0.911-6.574c-0.344-2.291-0.639-4.589-0.893-6.892
						c-0.506-4.592-0.986-9.196-1.214-13.81c-0.002-0.038-0.058-0.028-0.057,0.009c0.127,4.895,0.41,9.764,0.962,14.631
						c0.29,2.557,0.594,5.112,0.913,7.666c0.165,1.327,0.111,2.738,0.359,4.063c-4.572-10.785-5.856-23.878-4.3-35.187
						c0.407-2.543,0.902-5.196,1.726-7.588c5.896,13.107,5.744,26.606,4.676,40.81c-0.062,1.205-0.385,2.739-0.644,3.97
						l-0.028,0.094c-0.269-0.291-0.54-0.58-0.812-0.869C155.886,496.162,156.011,496.042,155.965,495.874z"/>
				</g>
				<g>
					<path style="fill:#F596D1;" d="M141.586,496.616c-2.921-0.09-5.843-0.104-8.764-0.132c-1.329-0.067-2.656-0.095-3.981-0.062
						c-0.465-0.009-0.931-0.015-1.396-0.028c-0.06-0.002-0.058,0.086,0.002,0.082c0.464-0.031,0.929-0.043,1.394-0.054
						c1.326,0.028,2.653,0.049,3.981,0.062c3.177,0.16,6.361,0.498,9.526,0.509c2.39,0.009,4.786-0.064,7.175-0.001
						c1.962,0.052,4.066-0.068,6.012,0.27c0.147,0.157,0.293,0.312,0.438,0.469c-1.173,0.359-2.586,0.781-3.728,0.942
						c-14.053,2.321-27.486,3.667-41.064-1.044c2.308-1.034,4.908-1.761,7.405-2.392c11.247-2.579,24.571-2.433,35.793,1.281
						c-1.861-0.089-3.778,0.081-5.613,0.083C146.376,496.601,143.976,496.69,141.586,496.616z"/>
				</g>
				<g>
					<path style="fill:#F596D1;" d="M146.087,486.722c-1.062-3.856-3.258-7.551-4.822-11.234c-1.707-4.018-3.336-8.051-4.73-12.19
						c-0.012-0.036-0.065-0.012-0.054,0.023c1.314,4.16,2.778,8.284,4.414,12.329c1.391,3.44,3.07,6.813,4.315,10.314
						c-0.442-0.393-0.881-0.788-1.327-1.175c-6.707-9.025-11.057-20.7-12.49-31.492c-0.282-2.559-0.51-5.249-0.351-7.774
						c9.165,11.07,12.604,24.127,15.345,38.103c0.245,1.112,0.344,2.56,0.418,3.775c-0.239-0.219-0.477-0.44-0.718-0.658
						C146.087,486.736,146.089,486.729,146.087,486.722z"/>
				</g>
				<g>
					<path style="fill:#F596D1;" d="M134.112,486.835c-4.361,0.24-8.718,0.459-13.063,0.919c-0.05,0.005-0.037,0.08,0.012,0.077
						c4.124-0.271,8.257-0.384,12.386-0.577c3.96-0.184,7.946-0.32,11.866,0.356c0.129,0.022,0.226-0.05,0.279-0.15
						c0.094,0.086,0.19,0.17,0.284,0.257l-0.196,0.087c-1.185,0.419-2.665,0.941-3.851,1.161
						c-13.941,2.921-27.304,4.844-41.07,0.716c2.262-1.13,4.828-1.969,7.295-2.706c11.206-3.081,24.636-3.495,36.061-0.189
						C140.871,486.298,137.314,486.66,134.112,486.835z"/>
				</g>
				<g>
					<path style="fill:#F596D1;" d="M126.142,474.696c-1.562,0.145-3.123,0.285-4.684,0.437c-3.402,0.331-6.775,0.799-10.154,1.312
						c-0.016,0.003-0.012,0.028,0.004,0.026c3.132-0.386,6.283-0.619,9.426-0.896c2.858-0.252,5.901-0.797,8.777-0.707
						c-1.085,0.531-2.375,1.146-3.449,1.477c-13.512,4.504-26.567,7.948-40.717,5.429c2.118-1.382,4.572-2.511,6.937-3.527
						c10.924-4.406,24.429-6.344,36.274-4.238c0.149,0.1,0.3,0.196,0.449,0.297C128.051,474.373,127.089,474.608,126.142,474.696z"
						/>
				</g>
				<g>
					<path style="fill:#F596D1;" d="M129.971,474.161c0.031-0.081,0.029-0.175-0.042-0.265c-2.754-3.485-5.505-6.982-8.389-10.361
						c-0.022-0.025-0.06,0.007-0.04,0.033c2.471,3.247,4.766,6.634,7.31,9.826c-1.419-0.922-2.855-1.813-4.311-2.675
						c-7.907-6.619-14.466-15.63-18.514-24.638c-1.002-2.371-1.99-4.883-2.56-7.348c11.95,7.984,18.982,19.51,25.609,32.118
						c0.585,1.055,1.126,2.527,1.558,3.707l0.006,0.024C130.39,474.442,130.181,474.301,129.971,474.161z"/>
				</g>
				<g>
					<path style="fill:#F596D1;" d="M107.342,462.554c4.177,1.72,8.23,3.703,12.165,5.896c-12.247-0.902-25.148-6.427-34.752-13.738
						c-2.013-1.605-4.08-3.341-5.758-5.235c14.312,1.309,25.994,8.079,37.836,15.992c1.019,0.647,2.197,1.683,3.139,2.513
						l0.382,0.396c-4.18-2.253-8.498-4.26-12.96-5.966C107.305,462.38,107.254,462.518,107.342,462.554z"/>
				</g>
				<g>
					<path style="fill:#272727;" d="M129.802,474.858c-0.024,0.005-0.048,0.013-0.076,0.012c-0.071-0.003-0.143-0.001-0.214-0.003
						c-2.876-0.09-5.919,0.455-8.777,0.707c-3.143,0.277-6.294,0.51-9.426,0.896c-0.016,0.003-0.021-0.023-0.004-0.026
						c3.379-0.513,6.752-0.981,10.154-1.312c1.561-0.152,3.122-0.292,4.684-0.437c0.947-0.089,1.909-0.323,2.863-0.39
						c-0.148-0.101-0.3-0.197-0.449-0.297c-2.939-1.978-5.957-3.834-9.049-5.558c-3.935-2.194-7.988-4.176-12.165-5.896
						c-0.089-0.037-0.038-0.174,0.052-0.14c4.462,1.705,8.78,3.712,12.96,5.966c1.397,0.753,2.78,1.531,4.145,2.34
						c1.455,0.862,2.892,1.754,4.311,2.675c-2.544-3.192-4.838-6.58-7.31-9.826c-0.019-0.026,0.019-0.058,0.04-0.033
						c2.884,3.379,5.636,6.876,8.389,10.361c0.071,0.09,0.073,0.184,0.042,0.265c0.21,0.14,0.418,0.281,0.628,0.422
						c4.629,3.119,9.062,6.538,13.285,10.206c0.446,0.387,0.885,0.782,1.327,1.175c-1.245-3.5-2.924-6.874-4.315-10.314
						c-1.636-4.045-3.1-8.169-4.414-12.329c-0.011-0.035,0.041-0.059,0.054-0.023c1.394,4.138,3.023,8.172,4.73,12.19
						c1.564,3.683,3.76,7.378,4.822,11.234c0.002,0.007-0.001,0.014,0.001,0.021c0.241,0.218,0.479,0.439,0.718,0.658
						c0.569,0.521,1.138,1.042,1.7,1.571c2.328,2.196,4.605,4.445,6.806,6.764c-0.077-0.253-0.141-0.51-0.189-0.771
						c-0.248-1.325-0.193-2.736-0.359-4.063c-0.319-2.553-0.623-5.109-0.913-7.666c-0.551-4.867-0.834-9.736-0.962-14.631
						c-0.001-0.037,0.056-0.047,0.057-0.009c0.228,4.614,0.708,9.218,1.214,13.81c0.254,2.303,0.548,4.601,0.893,6.892
						c0.322,2.139,0.336,4.501,0.911,6.574c0.046,0.168-0.079,0.288-0.224,0.322c0.272,0.289,0.543,0.578,0.812,0.869
						c2.577,2.788,5.029,5.69,7.312,8.732c0.019-0.171,0.039-0.34,0.058-0.51c0.775-7.008,1.632-13.984,2.856-20.937
						c0.004-0.024,0.043-0.02,0.039,0.004c-0.571,3.689-1.011,7.388-1.411,11.099c-0.371,3.448-0.295,7.111-0.933,10.505
						c-0.032,0.168-0.16,0.249-0.292,0.26c0.194,0.262,0.395,0.518,0.587,0.782c0.02,0.028,0.039,0.056,0.06,0.083
						c2.829,3.907,5.562,8.263,7.458,12.872c0.328,0.797,0.631,1.602,0.905,2.413c0.433-6.756,1.644-13.419,2.476-20.138
						c0.007-0.067,0.11-0.056,0.103,0.011c-0.418,3.95-1.057,7.869-1.564,11.807c-0.254,1.977-0.392,3.949-0.427,5.942
						c-0.025,1.43,0.325,2.978,0.027,4.393c0.086,0.316,0.164,0.634,0.24,0.951c0.167,0.696,0.318,1.396,0.434,2.1
						c0.042,0.252-0.351,0.378-0.438,0.127c-0.15-0.435-0.311-0.86-0.465-1.29c-0.183-0.508-0.362-1.022-0.551-1.524
						c-0.972-0.538-2.305-0.566-3.352-0.776c-1.421-0.285-2.815-0.509-4.257-0.661c-3.145-0.333-6.283-0.724-9.43-1.039
						c-0.046-0.005-0.038-0.073,0.007-0.071c3.424,0.189,6.844,0.378,10.258,0.703c1.623,0.154,3.195,0.516,4.802,0.77
						c0.115,0.017,0.224,0.031,0.336,0.046c0.463,0.063,0.904,0.126,1.327,0.242c-2.265-5.855-5.025-11.287-8.738-16.492
						c-0.099-0.139-0.189-0.279-0.289-0.417c-0.029,0.003-0.057,0.008-0.091,0.002c-1.681-0.324-4.048,0.254-5.731,0.436
						c-2.443,0.264-4.876,0.657-7.307,1.015c-4.627,0.682-9.231,1.246-13.916,1.166c-0.017-0.001-0.013-0.026,0.003-0.026
						c5.141-0.114,10.25-0.896,15.322-1.688c2.429-0.38,4.861-0.721,7.296-1.06c1.067-0.149,2.368-0.522,3.533-0.558
						c0.118-0.003,0.237-0.009,0.352-0.005c-2.224-3.001-4.639-5.857-7.177-8.603c-0.145-0.157-0.292-0.312-0.438-0.469
						c-1.945-0.337-4.05-0.218-6.012-0.27c-2.389-0.063-4.784,0.01-7.175,0.001c-3.164-0.011-6.349-0.35-9.526-0.509
						c2.921,0.028,5.843,0.042,8.764,0.132c2.389,0.074,4.79-0.015,7.18-0.016c1.834-0.001,3.752-0.171,5.613-0.083
						c0.163,0.008,0.325,0.018,0.487,0.03c-2.127-2.247-4.323-4.427-6.555-6.556c-0.803-0.766-1.615-1.523-2.435-2.274
						c-0.094-0.086-0.19-0.17-0.284-0.257c-0.053,0.099-0.15,0.172-0.279,0.15c-3.92-0.676-7.906-0.54-11.866-0.356
						c-4.128,0.192-8.262,0.305-12.386,0.577c-0.049,0.004-0.063-0.071-0.012-0.077c4.345-0.46,8.702-0.68,13.063-0.919
						c3.202-0.175,6.759-0.537,10.002-0.049c0.313,0.047,0.62,0.113,0.926,0.177C140.226,482.61,135.145,478.541,129.802,474.858z"
						/>
				</g>
				<path d="M132.822,496.483c-1.328-0.013-2.655-0.034-3.981-0.062C130.166,496.388,131.494,496.417,132.822,496.483z"/>
				<path d="M127.445,496.394c0.465,0.013,0.931,0.018,1.396,0.028c-0.465,0.012-0.93,0.024-1.394,0.054
					C127.387,496.48,127.385,496.392,127.445,496.394z"/>
			</g>
			<g>
				<path style="fill:#8156E2;" d="M141.072,469.587c2.523,4.713,10.658,8.387,14.652,12.075
					c7.47,6.898,13.755,14.976,21.318,21.765c15.534,13.936,42.014,21.228,58.637,4.575l2.021-1.855
					c-1.656-0.538-3.29-1.148-4.892-1.86c-0.036,0.019-0.062,0.048-0.106,0.063c-11.093,4.011-24.762,5.553-36.294,2.858
					c-0.139-0.033-0.089-0.243,0.051-0.217c11.718,2.161,23.548,0.35,34.675-3.499c-0.253-0.125-0.512-0.232-0.763-0.361
					c-6.729-3.467-13.056-7.578-19.459-11.586c-3.813,2.523-9.342,2.13-13.706,2.266c-6.375,0.201-12.741,0.951-18.992-0.722
					c-0.117-0.032-0.077-0.212,0.043-0.186c5.879,1.275,11.932,0.717,17.877,0.32c4.451-0.297,9.736-0.086,13.73-2.333
					c-1.412-0.879-2.825-1.753-4.252-2.61c-6.902-4.146-14.281-7.88-21.96-10.763c-0.145,0.039-0.311,0.007-0.44-0.162l0,0
					c-0.466-0.173-0.931-0.349-1.397-0.516c-1.792,1.271-4.632,1.894-6.659,2.277c-2.761,0.523-5.551,0.976-8.372,0.798
					c-0.034-0.003-0.036-0.055-0.002-0.054c3.083,0.101,5.997-0.628,8.934-1.478c1.707-0.495,3.443-1.362,5.182-1.863
					c-8.348-2.877-17.015-4.696-25.793-4.866c-0.082-0.001-0.088-0.125-0.005-0.128c9.278-0.185,18.409,1.658,27.174,4.685
					c-2.807-3.276-6.427-6.058-9.575-8.936c-0.064-0.06,0.03-0.157,0.096-0.099c3.734,3.116,7.377,6.244,10.937,9.555
					c6.558,2.371,12.908,5.381,18.947,8.693c2.866,1.574,5.688,3.221,8.502,4.888c-2.992-4.63-5.506-9.317-9.293-13.427
					c-3.577-3.879-7.508-7.348-12.068-10.03c-0.147-0.086-0.027-0.312,0.124-0.233c5.07,2.625,9.522,6.23,13.271,10.537
					c3.424,3.935,7.003,8.255,9.115,13.061c0.126,0.286-0.044,0.513-0.282,0.604c5.172,3.07,10.317,6.186,15.632,9
					c2.066,1.092,4.143,2.124,6.266,3.043c-3.079-6.152-5.6-12.488-9.62-18.138c-4.487-6.31-9.759-11.993-15.323-17.359
					c-0.049-0.048,0.024-0.123,0.073-0.077c5.36,5.048,10.85,10.058,15.249,15.999c4.568,6.17,7.806,12.987,11.211,19.833
					c0.072,0.149,0.077,0.289,0.052,0.422c1.058,0.421,2.132,0.808,3.221,1.158c0.495-2.739,0.67-5.451,0.533-8.238
					c-0.641-13.091-7.609-25.671-17.942-33.508c-12.399-9.41-27.015-13.428-42.323-9.714
					C165.559,456.525,153.696,464.054,141.072,469.587z"/>
				<g>
					<path style="fill:#272727;" d="M235.535,503.127c-3.405-6.846-6.643-13.663-11.211-19.833
						c-4.399-5.941-9.889-10.95-15.249-15.999c-0.049-0.046-0.123,0.029-0.073,0.077c5.564,5.365,10.836,11.049,15.323,17.359
						c4.02,5.649,6.541,11.986,9.62,18.138c-2.123-0.919-4.2-1.95-6.266-3.043c-5.315-2.814-10.46-5.93-15.632-9
						c0.238-0.091,0.408-0.318,0.282-0.604c-2.112-4.806-5.691-9.127-9.115-13.061c-3.749-4.307-8.201-7.913-13.271-10.537
						c-0.151-0.078-0.271,0.148-0.124,0.233c4.559,2.683,8.49,6.151,12.068,10.03c3.787,4.11,6.301,8.797,9.293,13.427
						c-2.814-1.667-5.636-3.315-8.502-4.888c-6.039-3.312-12.388-6.322-18.947-8.693c-3.56-3.311-7.203-6.44-10.937-9.555
						c-0.066-0.058-0.159,0.039-0.096,0.099c3.148,2.878,6.768,5.66,9.575,8.936c-8.765-3.027-17.896-4.869-27.174-4.685
						c-0.083,0.003-0.077,0.126,0.005,0.128c8.779,0.171,17.445,1.989,25.793,4.866c-1.739,0.501-3.475,1.368-5.182,1.863
						c-2.937,0.85-5.851,1.578-8.934,1.478c-0.035-0.001-0.032,0.051,0.002,0.054c2.82,0.178,5.611-0.275,8.372-0.798
						c2.027-0.383,4.867-1.006,6.659-2.277c0.466,0.167,0.931,0.342,1.397,0.516l0,0c0.13,0.168,0.295,0.201,0.44,0.162
						c7.679,2.883,15.058,6.617,21.96,10.763c1.427,0.857,2.84,1.731,4.252,2.61c-3.994,2.247-9.279,2.036-13.73,2.333
						c-5.944,0.397-11.998,0.955-17.877-0.32c-0.12-0.026-0.16,0.154-0.043,0.186c6.251,1.674,12.617,0.923,18.992,0.722
						c4.364-0.136,9.893,0.257,13.706-2.266c6.402,4.008,12.729,8.12,19.459,11.586c0.251,0.129,0.51,0.236,0.763,0.361
						c-11.127,3.849-22.957,5.66-34.675,3.499c-0.14-0.027-0.19,0.184-0.051,0.217c11.532,2.694,25.201,1.153,36.294-2.858
						c0.044-0.015,0.069-0.044,0.106-0.063c1.602,0.711,3.237,1.322,4.892,1.86c5.393,1.754,11.032,2.669,16.735,3.088
						c0.404,0.03,0.422-0.584,0.062-0.679c-4.332-1.154-8.74-1.991-13.087-3.093c-0.881-0.222-1.745-0.483-2.602-0.756
						c-1.09-0.35-2.163-0.737-3.221-1.158C235.611,503.416,235.607,503.276,235.535,503.127z"/>
				</g>
			</g>
			<g>
				<path style="fill:#8156E2;" d="M528.758,476.062c-2.867,4.513-11.251,7.572-15.509,10.953
					c-7.962,6.324-14.83,13.912-22.877,20.12c-16.526,12.743-43.475,18.046-58.815,0.205l-1.878-2.001
					c1.691-0.414,3.367-0.901,5.017-1.491c0.035,0.022,0.059,0.053,0.101,0.071c10.764,4.825,24.281,7.378,35.981,5.548
					c0.141-0.022,0.107-0.236-0.034-0.22c-11.846,1.284-23.509-1.401-34.319-6.066c0.261-0.106,0.528-0.193,0.787-0.304
					c6.968-2.957,13.584-6.587,20.266-10.108c3.615,2.8,9.157,2.819,13.499,3.279c6.343,0.674,12.635,1.896,18.994,0.691
					c0.119-0.024,0.093-0.206-0.029-0.189c-5.957,0.835-11.953-0.172-17.851-1.009c-4.416-0.627-9.703-0.81-13.519-3.347
					c1.473-0.771,2.948-1.538,4.434-2.287c7.191-3.622,14.827-6.797,22.699-9.101c0.142,0.05,0.309,0.03,0.451-0.128l0,0
					c0.477-0.138,0.954-0.279,1.431-0.411c1.692,1.4,4.479,2.233,6.471,2.766c2.715,0.726,5.464,1.386,8.289,1.418
					c0.034-0.001,0.04-0.052,0.006-0.054c-3.082-0.129-5.934-1.072-8.799-2.138c-1.665-0.62-3.332-1.614-5.029-2.243
					c8.539-2.249,17.317-3.418,26.084-2.936c0.082,0.005,0.097-0.118,0.015-0.127c-9.239-0.874-18.481,0.285-27.447,2.652
					c3.043-3.058,6.86-5.563,10.213-8.2c0.068-0.055-0.018-0.158-0.088-0.106c-3.955,2.83-7.821,5.679-11.617,8.716
					c-6.716,1.877-13.272,4.406-19.54,7.261c-2.975,1.356-5.912,2.789-8.842,4.243c3.328-4.395,6.183-8.882,10.265-12.699
					c3.856-3.603,8.033-6.769,12.78-9.106c0.153-0.074,0.05-0.309-0.106-0.242c-5.251,2.241-9.958,5.505-14.017,9.522
					c-3.707,3.669-7.597,7.712-10.061,12.348c-0.147,0.276,0.006,0.515,0.236,0.624c-5.386,2.678-10.748,5.402-16.257,7.814
					c-2.142,0.936-4.29,1.81-6.475,2.569c3.527-5.906,6.513-12.038,10.941-17.372c4.944-5.959,10.624-11.235,16.571-16.172
					c0.053-0.044-0.015-0.125-0.067-0.082c-5.72,4.636-11.567,9.223-16.395,14.821c-5.014,5.814-8.749,12.371-12.654,18.945
					c-0.083,0.143-0.098,0.282-0.084,0.417c-1.086,0.341-2.186,0.647-3.298,0.915c-0.29-2.768-0.263-5.486,0.081-8.255
					c1.613-13.007,9.496-25.035,20.383-32.082c13.064-8.462,27.938-11.383,42.928-6.542
					C505.31,461.216,516.581,469.605,528.758,476.062z"/>
				<g>
					<path style="fill:#272727;" d="M432.065,502.488c3.905-6.574,7.64-13.132,12.654-18.945
						c4.828-5.598,10.675-10.185,16.395-14.821c0.052-0.042,0.12,0.038,0.067,0.082c-5.947,4.937-11.627,10.213-16.571,16.172
						c-4.428,5.335-7.414,11.466-10.941,17.372c2.185-0.758,4.333-1.633,6.475-2.569c5.509-2.411,10.872-5.136,16.257-7.814
						c-0.23-0.108-0.383-0.347-0.236-0.624c2.463-4.636,6.353-8.679,10.061-12.348c4.059-4.017,8.766-7.281,14.017-9.522
						c0.156-0.067,0.259,0.167,0.106,0.242c-4.746,2.336-8.924,5.503-12.78,9.106c-4.082,3.817-6.938,8.305-10.265,12.699
						c2.93-1.454,5.867-2.887,8.842-4.243c6.268-2.854,12.824-5.384,19.54-7.261c3.796-3.037,7.662-5.887,11.617-8.716
						c0.07-0.053,0.156,0.051,0.088,0.106c-3.353,2.636-7.17,5.141-10.213,8.2c8.966-2.367,18.208-3.526,27.447-2.652
						c0.082,0.009,0.067,0.132-0.015,0.127c-8.767-0.482-17.545,0.687-26.084,2.936c1.697,0.629,3.363,1.622,5.029,2.243
						c2.865,1.065,5.717,2.009,8.799,2.138c0.035,0.001,0.029,0.053-0.006,0.054c-2.826-0.032-5.575-0.691-8.289-1.418
						c-1.993-0.533-4.779-1.365-6.471-2.766c-0.477,0.132-0.954,0.272-1.431,0.411l0,0c-0.142,0.158-0.309,0.178-0.451,0.128
						c-7.872,2.304-15.508,5.48-22.699,9.101c-1.486,0.749-2.961,1.516-4.434,2.287c3.816,2.537,9.102,2.72,13.519,3.347
						c5.898,0.838,11.894,1.844,17.851,1.009c0.122-0.017,0.148,0.165,0.029,0.189c-6.358,1.205-12.651-0.017-18.994-0.691
						c-4.342-0.46-9.884-0.479-13.499-3.279c-6.682,3.521-13.297,7.151-20.266,10.108c-0.26,0.11-0.526,0.198-0.787,0.304
						c10.81,4.665,22.473,7.35,34.319,6.066c0.141-0.016,0.176,0.197,0.034,0.22c-11.7,1.83-25.217-0.723-35.981-5.548
						c-0.042-0.018-0.066-0.049-0.101-0.071c-1.651,0.59-3.326,1.077-5.017,1.491c-5.508,1.349-11.2,1.842-16.918,1.836
						c-0.405,0-0.378-0.613-0.012-0.682c4.406-0.829,8.864-1.336,13.281-2.112c0.895-0.156,1.776-0.352,2.651-0.56
						c1.113-0.268,2.212-0.574,3.298-0.915C431.967,502.771,431.982,502.631,432.065,502.488z"/>
				</g>
			</g>
			<g>
				<path style="fill:#8156E2;" d="M220.433,428.756c1.468,9.066,5.641,18.458,11.221,25.723
					c5.337,6.945,11.112,14.693,18.32,19.823c-1.268-2.395-2.476-4.821-3.537-7.334c-0.598-1.417-1.176-2.841-1.74-4.271
					c-3.067-2.582-5.653-6.018-8.173-9.059c-3.039-3.667-6.039-7.359-8.731-11.29c-0.026-0.038,0.026-0.079,0.055-0.045
					c3.051,3.651,5.905,7.465,9.045,11.042c2.133,2.432,4.818,4.713,6.993,7.24c-1.254-3.279-2.437-6.585-3.555-9.915
					c-0.494-1.473-0.965-2.952-1.446-4.429c-0.053,0.038-0.124,0.051-0.178-0.003c-2.213-2.11-3.787-5-5.653-7.422
					c-1.887-2.452-3.788-4.916-5.791-7.275c-0.013-0.016,0.011-0.033,0.025-0.019c2.342,2.498,4.605,5.022,6.73,7.711
					c1.545,1.955,3.389,3.921,4.584,6.138c-0.292-0.899-0.593-1.795-0.88-2.695c-0.072,0.03-0.169,0.015-0.196-0.066
					c-0.243-0.722-0.415-1.477-0.536-2.25c-2.37-7.478-4.659-14.983-7.067-22.45c-0.006-0.019,0.023-0.032,0.029-0.012
					c2.322,6.675,4.563,13.379,6.835,20.073c-0.076-4.039,1.071-8.362,2.457-11.799c0.055-0.137,0.254-0.053,0.21,0.085
					c-0.924,2.887-1.578,5.805-1.765,8.837c-0.119,1.935,0.009,3.838,0.076,5.752c1.189,3.48,2.388,6.957,3.621,10.421
					c1.265,3.55,2.608,7.074,4.054,10.555c-0.008-0.19-0.016-0.378-0.027-0.568c-0.117-2.101-0.195-4.202-0.189-6.306
					c0.014-4.774,0.059-9.577,0.73-14.311c0.014-0.106,0.171-0.085,0.162,0.02c-0.617,8.059-0.36,15.938,0.497,23.921
					c0.414,0.946,0.825,1.893,1.258,2.829c0.944,2.038,1.874,4.091,2.932,6.074c-0.017-1.813,0.159-3.601,0.225-5.411
					c0.461-12.285-0.667-26.342-3.682-38.188c-4.261-16.73-16.517-27.034-27.177-39.607
					C221.458,403.112,218.337,415.82,220.433,428.756z"/>
				<g>
					<path style="fill:#272727;" d="M246.613,464.579c-0.857-7.982-1.115-15.862-0.497-23.921c0.008-0.105-0.148-0.126-0.162-0.02
						c-0.671,4.734-0.716,9.537-0.73,14.311c-0.006,2.105,0.073,4.205,0.189,6.306c0.011,0.19,0.019,0.378,0.027,0.568
						c-1.446-3.481-2.789-7.005-4.054-10.555c-1.234-3.463-2.432-6.94-3.621-10.421c-0.067-1.915-0.194-3.817-0.076-5.752
						c0.187-3.033,0.841-5.95,1.765-8.837c0.043-0.137-0.155-0.222-0.21-0.085c-1.386,3.437-2.532,7.76-2.457,11.799
						c-2.273-6.694-4.514-13.399-6.835-20.073c-0.006-0.02-0.035-0.006-0.029,0.012c2.408,7.467,4.697,14.972,7.067,22.45
						c0.121,0.773,0.293,1.528,0.536,2.25c0.027,0.081,0.124,0.096,0.196,0.066c0.287,0.9,0.588,1.796,0.88,2.695
						c-1.195-2.217-3.039-4.184-4.584-6.138c-2.125-2.689-4.388-5.213-6.73-7.711c-0.014-0.014-0.038,0.003-0.025,0.019
						c2.004,2.359,3.904,4.823,5.791,7.275c1.866,2.422,3.44,5.312,5.653,7.422c0.054,0.053,0.126,0.041,0.178,0.003
						c0.481,1.476,0.953,2.956,1.446,4.429c1.117,3.33,2.301,6.636,3.555,9.915c-2.175-2.526-4.86-4.807-6.993-7.24
						c-3.14-3.577-5.993-7.391-9.045-11.042c-0.029-0.034-0.081,0.007-0.055,0.045c2.692,3.931,5.692,7.623,8.731,11.29
						c2.52,3.041,5.106,6.477,8.173,9.059c0.564,1.429,1.142,2.854,1.74,4.271c1.061,2.513,2.269,4.939,3.537,7.334
						c1.369,2.586,2.807,5.135,4.21,7.718c0.198,0.364,0.886,0.257,0.762-0.209c-0.655-2.479-2.017-4.612-3.304-6.808
						c-0.293-0.5-0.567-1.01-0.84-1.521c-1.059-1.983-1.988-4.036-2.932-6.074C247.438,466.471,247.027,465.524,246.613,464.579z"/>
				</g>
			</g>
			<g>
				<path style="fill:#8156E2;" d="M405.069,418.267c0.201,9.182,3.037,19.06,7.56,27.026c4.326,7.616,8.976,16.087,15.405,22.164
					c-0.924-2.547-1.786-5.117-2.49-7.752c-0.397-1.486-0.772-2.977-1.133-4.47c-2.681-2.981-4.767-6.741-6.843-10.101
					c-2.503-4.052-4.964-8.123-7.087-12.388c-0.02-0.041,0.037-0.075,0.061-0.037c2.518,4.037,4.817,8.209,7.432,12.186
					c1.777,2.704,4.12,5.334,5.926,8.136c-0.789-3.42-1.504-6.859-2.151-10.311c-0.285-1.527-0.548-3.057-0.821-4.586
					c-0.057,0.031-0.13,0.033-0.176-0.027c-1.9-2.396-3.06-5.475-4.573-8.132c-1.53-2.689-3.072-5.392-4.73-8.005
					c-0.011-0.017,0.016-0.032,0.027-0.015c1.974,2.797,3.867,5.611,5.6,8.567c1.26,2.149,2.815,4.352,3.692,6.713
					c-0.165-0.931-0.34-1.859-0.5-2.79c-0.076,0.019-0.169-0.009-0.185-0.093c-0.141-0.749-0.207-1.52-0.22-2.302
					c-1.314-7.734-2.544-15.483-3.897-23.212c-0.003-0.019,0.027-0.028,0.03-0.008c1.377,6.931,2.67,13.881,3.996,20.825
					c0.483-4.011,2.216-8.134,4.063-11.346c0.074-0.128,0.258-0.017,0.196,0.113c-1.314,2.732-2.364,5.531-2.969,8.508
					c-0.385,1.9-0.521,3.802-0.72,5.707c0.696,3.611,1.403,7.22,2.147,10.821c0.762,3.69,1.606,7.366,2.557,11.014
					c0.018-0.189,0.036-0.377,0.052-0.566c0.175-2.097,0.387-4.188,0.684-6.272c0.674-4.726,1.381-9.477,2.7-14.073
					c0.029-0.103,0.181-0.061,0.158,0.042c-1.725,7.896-2.558,15.736-2.812,23.76c0.279,0.994,0.555,1.988,0.855,2.976
					c0.653,2.149,1.291,4.311,2.065,6.421c0.233-1.798,0.655-3.545,0.971-5.328c2.154-12.104,2.979-26.182,1.629-38.33
					c-1.908-17.158-12.624-29.056-21.445-42.982C409.627,393.01,404.78,405.165,405.069,418.267z"/>
				<g>
					<path style="fill:#272727;" d="M426.049,457.363c0.254-8.024,1.088-15.864,2.812-23.76c0.023-0.103-0.129-0.145-0.158-0.042
						c-1.319,4.596-2.026,9.347-2.7,14.073c-0.297,2.084-0.509,4.175-0.684,6.272c-0.016,0.189-0.034,0.377-0.052,0.566
						c-0.951-3.648-1.794-7.323-2.557-11.014c-0.743-3.601-1.45-7.21-2.147-10.821c0.198-1.905,0.335-3.807,0.72-5.707
						c0.604-2.978,1.655-5.776,2.969-8.508c0.062-0.13-0.123-0.241-0.196-0.113c-1.847,3.213-3.58,7.335-4.063,11.346
						c-1.326-6.944-2.619-13.894-3.996-20.825c-0.004-0.02-0.033-0.011-0.03,0.008c1.353,7.729,2.583,15.477,3.897,23.212
						c0.013,0.782,0.079,1.553,0.22,2.302c0.016,0.084,0.109,0.112,0.185,0.093c0.16,0.931,0.335,1.86,0.5,2.79
						c-0.877-2.361-2.432-4.563-3.692-6.713c-1.733-2.957-3.626-5.77-5.6-8.567c-0.011-0.016-0.038-0.002-0.027,0.015
						c1.658,2.613,3.2,5.316,4.73,8.005c1.513,2.657,2.673,5.736,4.573,8.132c0.047,0.06,0.119,0.058,0.176,0.027
						c0.273,1.529,0.535,3.059,0.821,4.586c0.647,3.453,1.362,6.891,2.151,10.311c-1.805-2.802-4.149-5.432-5.926-8.136
						c-2.616-3.977-4.915-8.148-7.432-12.186c-0.024-0.038-0.081-0.004-0.061,0.037c2.123,4.265,4.584,8.336,7.087,12.388
						c2.076,3.36,4.162,7.12,6.843,10.101c0.361,1.494,0.737,2.984,1.133,4.47c0.703,2.635,1.565,5.205,2.49,7.752
						c0.998,2.75,2.071,5.474,3.104,8.226c0.146,0.387,0.842,0.377,0.784-0.102c-0.306-2.546-1.36-4.846-2.331-7.199
						c-0.221-0.536-0.422-1.079-0.622-1.623c-0.774-2.11-1.412-4.272-2.065-6.421C426.604,459.351,426.328,458.356,426.049,457.363z
						"/>
				</g>
			</g>
			<g>
				<path style="fill:#F596D1;" d="M226.617,517.229c-0.207-0.289-0.433-0.571-0.664-0.849c0.24,0.029,0.478,0.068,0.713,0.111
					C226.654,516.735,226.632,516.985,226.617,517.229z"/>
				<path style="fill:#F596D1;" d="M231.915,485.397c1.62-2.802,3.1-5.745,5.362-8.096c0.048-0.05-0.026-0.121-0.076-0.074
					c-4.297,3.847-8.65,10.152-9.938,16.034c-0.089-0.527-0.182-1.048-0.276-1.569c1.484-9.444,5.798-19.411,13.327-24.943
					c3.14-2.334,6.543-5.232,10.41-6.281c-1.996,2.72-2.059,6.061-2.914,9.168c-0.943,3.926-2.968,7.936-4.967,11.419
					c-1.674,3.014-3.845,5.857-6.398,8.312c-1.788,1.7-3.96,3.016-5.836,4.77c-0.837,0.744-1.953,1.394-2.881,2.165
					c-0.073-0.51-0.144-1.021-0.222-1.528C229.425,491.988,230.193,488.368,231.915,485.397z"/>
				<path style="fill:#F596D1;" d="M222.584,450.437c0.016-0.039-0.04-0.075-0.06-0.033c-1.171,2.436-2.917,5.127-3.962,7.925
					c0.027-8.934,2.411-18.458,8.22-24.819c2.619-2.91,5.385-6.417,8.973-8.205c-1.423,3.059-0.829,6.348-1.059,9.563
					c-0.155,4.032-1.352,8.362-2.63,12.169c-1.048,3.287-2.621,6.499-4.644,9.408c-1.421,2.015-3.288,3.734-4.785,5.819
					c-0.827,1.101-2.077,2.145-2.856,3.354c-0.285-0.785-0.574-1.568-0.867-2.352C219.087,458.711,220.855,454.672,222.584,450.437z
					"/>
				<path style="fill:#F596D1;" d="M208.457,414.236c0.02-0.075-0.087-0.098-0.114-0.03c-1.467,3.712-1.48,7.454-2.168,11.33
					c-0.417,2.356-0.996,4.828-1.075,7.265c-0.303-0.553-0.598-1.111-0.904-1.66c-2.133-8.703-2.107-18.564,2.029-26.158
					c1.846-3.448,3.697-7.517,6.752-10.109c-0.649,3.312,0.712,6.361,1.257,9.534c0.815,3.956,0.684,8.449,0.355,12.451
					c-0.234,3.44-0.996,6.934-2.263,10.245c-0.897,2.296-2.302,4.411-3.257,6.796c-0.44,1.034-1.179,2.097-1.691,3.192
					c-0.5-0.97-1.006-1.938-1.524-2.901C206.574,427.622,206.605,420.568,208.457,414.236z"/>
				<path style="fill:#F596D1;" d="M206.729,438.777c-0.177-0.41-0.341-0.837-0.507-1.26c0.189,0.375,0.374,0.747,0.562,1.123
					L206.729,438.777z"/>
				<path style="fill:#F596D1;" d="M188.704,398.839c-0.48-3.946-0.832-7.91-1.096-11.88c-0.006-0.116-0.188-0.119-0.185,0.001
					c0.092,4.775,0.408,9.501,1.047,14.236c0.333,2.475,0.542,5.207,1.239,7.704c-0.979-1.292-1.974-2.569-2.986-3.832
					c-3.679-7.024-5.786-15.132-4.374-22.555c0.705-3.846,1.224-8.288,3.343-11.691c0.391,3.356,2.62,5.839,4.107,8.696
					c1.985,3.521,3.233,7.836,4.141,11.746c0.828,3.351,1.172,6.91,0.976,10.447c-0.154,2.46-0.844,4.905-1.024,7.467
					c-0.132,1.419-0.69,3.025-0.685,4.507c-0.739-1.046-1.489-2.086-2.252-3.118C190.587,406.658,189.182,402.751,188.704,398.839z"
					/>
				<path style="fill:#F596D1;" d="M192.051,413.552c-0.039-0.004-0.082,0.001-0.123-0.004c0.027-0.022,0.048-0.05,0.066-0.081
					C192.015,413.494,192.032,413.523,192.051,413.552z"/>
				<path style="fill:#F596D1;" d="M161.585,400.614c10.259-1.245,21.356,4.156,29.095,10.964c0.268,0.379,0.537,0.756,0.802,1.136
					c-3.135-1.806-6.853-2.9-10.243-4.075c-4-1.386-7.979-2.501-12.196-2.973c-0.075-0.007-0.093,0.123-0.017,0.135
					c7.555,1.251,15.646,4.038,22.369,7.742c-1.327,0.015-2.739,0.354-3.989,0.384c-2.569,0.006-5.052,0.533-7.515,0.52
					c-3.545-0.042-7.073-0.628-10.357-1.678c-3.842-1.171-8.064-2.706-11.44-4.921c-2.749-1.679-5.081-4.07-8.399-4.688
					C153.233,401.277,157.696,401.055,161.585,400.614z"/>
				<path style="fill:#F596D1;" d="M205.596,436.275c-0.013-0.001-0.024-0.001-0.036-0.001c0.008-0.006,0.019-0.009,0.026-0.017
					C205.591,436.265,205.591,436.268,205.596,436.275z"/>
				<path style="fill:#F596D1;" d="M195.613,432.581c-4.505-1.282-8.718-3.048-13.395-3.727c-0.044-0.007-0.062,0.058-0.017,0.066
					c4.385,0.803,8.279,2.657,12.489,4.001c3.552,1.134,7.159,1.565,10.492,3.347c-1.236,0.061-2.531,0.363-3.684,0.392
					c-2.57,0.004-5.052,0.533-7.514,0.52c-3.545-0.041-7.075-0.628-10.36-1.677c-3.84-1.173-8.065-2.708-11.437-4.925
					c-2.75-1.677-5.08-4.067-8.4-4.687c3.537-1.883,8.001-2.103,11.889-2.545c10.088-1.225,20.988,3.98,28.705,10.622
					c0.238,0.448,0.476,0.897,0.709,1.345C202.276,433.533,198.756,433.474,195.613,432.581z"/>
				<path style="fill:#F596D1;" d="M217.835,464.223c-3.871-3.927-10.559-5.42-15.322-7.502c-0.13-0.056-0.243,0.13-0.11,0.196
					c2.826,1.367,5.716,2.612,8.504,4.058c2.37,1.227,4.376,2.721,6.441,4.3c-1.071-0.021-2.178,0.067-3.158-0.024
					c-2.552-0.29-5.08-0.059-7.528-0.36c-3.513-0.454-6.949-1.448-10.09-2.873c-3.677-1.613-7.691-3.627-10.787-6.222
					c-2.536-1.99-4.57-4.639-7.794-5.636c3.732-1.461,8.192-1.155,12.104-1.142c10.162-0.039,20.382,6.402,27.271,13.901
					c0.151,0.396,0.299,0.793,0.449,1.19C217.822,464.149,217.828,464.184,217.835,464.223z"/>
				<path style="fill:#F596D1;" d="M221.412,490.319c-3.442-1.989-6.757-4.196-10.192-6.201c-0.055-0.033-0.101,0.051-0.048,0.085
					c2.89,1.914,5.539,4.174,8.472,6.028c2.162,1.367,4.261,2.552,5.832,4.511c-1.147-0.181-2.371-0.199-3.424-0.417
					c-2.505-0.579-5.04-0.634-7.437-1.211c-3.44-0.849-6.743-2.223-9.701-3.993c-3.472-2.018-7.234-4.481-10.014-7.406
					c-2.293-2.261-4.017-5.125-7.106-6.481c3.873-1.026,8.272-0.223,12.154,0.234c10.201,1.123,19.709,8.815,25.695,17.138
					c0.044,0.285,0.091,0.572,0.131,0.859C224.61,492.122,222.87,491.162,221.412,490.319z"/>
				<path style="fill:#F596D1;" d="M225.954,516.38c-1.966-2.364-4.722-4.316-7.162-5.959c-3.798-2.559-7.82-4.551-11.96-6.486
					c-0.027-0.012-0.051,0.028-0.024,0.042c3.682,1.944,7.313,4.118,10.711,6.531c2.416,1.717,4.422,3.682,6.473,5.661
					c-0.37-0.039-0.733-0.085-1.075-0.157c-2.502-0.58-5.042-0.635-7.436-1.209c-3.441-0.851-6.744-2.228-9.702-3.999
					c-3.47-2.017-7.232-4.476-10.012-7.405c-2.297-2.26-4.018-5.124-7.108-6.481c3.874-1.023,8.272-0.22,12.156,0.235
					c10.334,1.139,19.957,9.016,25.928,17.462c-0.025,0.625-0.042,1.247-0.076,1.875
					C226.431,516.448,226.194,516.409,225.954,516.38z"/>
				<path style="fill:#F596D1;" d="M227.95,516.348c2.441-2.42,4.804-4.766,7.395-7.066c2.839-2.52,5.634-5.47,8.883-7.452
					c0.033-0.02,0.001-0.067-0.032-0.05c-3.638,1.885-6.363,4.299-9.511,6.862c-2,1.626-4.537,3.302-6.296,5.393
					c4.286-8.843,11.68-17.464,20.878-20.485c3.709-1.249,7.842-2.945,11.846-2.74c-2.742,1.969-3.84,5.122-5.617,7.808
					c-2.116,3.439-5.289,6.62-8.27,9.311c-2.528,2.346-5.477,4.369-8.666,5.912c-2.227,1.056-4.699,1.634-7.029,2.718
					c-1.171,0.513-2.633,0.809-3.857,1.382C227.773,517.412,227.869,516.881,227.95,516.348z"/>
				<path style="fill:#F596D1;" d="M173.501,390.744c2.854,2.95,5.579,6.011,8.205,9.153c-10.035-3.801-20.754-11.849-24.263-22.277
					c-1.273-3.702-2.996-7.825-2.821-11.829c1.988,2.729,5.151,3.803,7.85,5.562c3.453,2.095,6.659,5.245,9.368,8.207
					c2.362,2.512,4.409,5.444,5.972,8.624c1.073,2.219,1.667,4.686,2.768,7.008c0.609,1.364,0.9,3.149,1.712,4.457l0.124,0.265
					c-2.793-3.216-5.707-6.335-8.757-9.333C173.553,390.48,173.4,390.638,173.501,390.744z"/>
				<g>
					<path style="fill:#272727;" d="M169.043,405.665c4.216,0.472,8.196,1.586,12.196,2.973c3.389,1.175,7.108,2.269,10.243,4.075
						c-0.265-0.38-0.534-0.757-0.802-1.136c-2.834-4.013-5.825-7.909-8.975-11.681c-2.626-3.142-5.351-6.203-8.205-9.153
						c-0.101-0.105,0.053-0.264,0.158-0.162c3.051,2.998,5.964,6.116,8.757,9.333c1.47,1.689,2.907,3.408,4.308,5.153
						c1.012,1.263,2.007,2.54,2.986,3.832c-0.697-2.497-0.906-5.229-1.239-7.704c-0.639-4.735-0.955-9.462-1.047-14.236
						c-0.003-0.12,0.179-0.117,0.185-0.001c0.264,3.97,0.616,7.934,1.096,11.88c0.477,3.913,1.883,7.82,2.251,11.725
						c0.763,1.032,1.513,2.072,2.252,3.118c3.969,5.615,7.635,11.445,10.99,17.459c0.305,0.549,0.601,1.107,0.904,1.66
						c0.079-2.437,0.658-4.909,1.075-7.265c0.687-3.877,0.701-7.618,2.168-11.33c0.027-0.068,0.134-0.045,0.114,0.03
						c-1.852,6.333-1.883,13.387-2.603,19.955c0.518,0.963,1.024,1.931,1.524,2.901c2.521,4.879,4.863,9.851,7.019,14.904
						c1.213,2.847,2.386,5.709,3.503,8.592c0.156-0.759,0.382-1.514,0.661-2.259c1.046-2.798,2.791-5.489,3.962-7.925
						c0.02-0.041,0.076-0.006,0.06,0.033c-1.73,4.235-3.497,8.274-3.67,12.829c0.293,0.783,0.582,1.566,0.867,2.352
						c2.487,6.885,4.625,13.886,6.199,21.053c0.362,1.644,0.696,3.323,1.005,5.021c0.094,0.522,0.187,1.043,0.276,1.569
						c1.289-5.882,5.641-12.187,9.938-16.034c0.051-0.047,0.124,0.024,0.076,0.074c-2.261,2.351-3.741,5.295-5.362,8.096
						c-1.721,2.971-2.49,6.591-4.409,9.375c0.078,0.508,0.149,1.018,0.222,1.528c0.826,5.948,1.15,12.051,0.497,17.952
						c0.058-0.072,0.107-0.147,0.165-0.216c1.759-2.091,4.295-3.767,6.296-5.393c3.148-2.562,5.873-4.977,9.511-6.862
						c0.033-0.018,0.064,0.029,0.032,0.05c-3.249,1.982-6.045,4.932-8.883,7.452c-2.59,2.3-4.954,4.646-7.395,7.066
						c-0.081,0.534-0.177,1.064-0.276,1.594c-0.174,0.932-0.367,1.862-0.599,2.777c-0.094,0.376-0.711,0.311-0.68-0.087
						c0.054-0.694,0.089-1.38,0.136-2.069c-0.874-0.79-1.71-1.592-2.539-2.393c-2.051-1.98-4.057-3.944-6.473-5.661
						c-3.397-2.413-7.029-4.587-10.711-6.531c-0.027-0.015-0.003-0.055,0.024-0.042c4.141,1.935,8.162,3.926,11.96,6.486
						c2.44,1.643,5.196,3.595,7.162,5.959c0.231,0.278,0.457,0.56,0.664,0.849c0.015-0.245,0.036-0.494,0.049-0.738
						c0.034-0.628,0.051-1.25,0.076-1.875c0.262-6.428,0.088-12.729-0.687-19.068c-0.185-0.281-0.376-0.553-0.579-0.807
						c-1.571-1.959-3.671-3.144-5.832-4.511c-2.933-1.854-5.583-4.115-8.472-6.028c-0.053-0.034-0.007-0.118,0.048-0.085
						c3.435,2.005,6.75,4.213,10.192,6.201c1.458,0.843,3.198,1.803,4.363,3.145c-0.041-0.287-0.087-0.573-0.131-0.859
						c-0.332-2.19-0.714-4.385-1.199-6.598c-1.481-6.726-3.517-13.32-5.859-19.802c-0.012-0.007-0.025-0.004-0.038-0.012
						c-0.404-0.31-0.801-0.613-1.199-0.918c-2.065-1.579-4.072-3.073-6.441-4.3c-2.788-1.445-5.678-2.691-8.504-4.058
						c-0.134-0.066-0.021-0.252,0.11-0.196c4.764,2.081,11.452,3.574,15.322,7.502c-0.007-0.038-0.013-0.074-0.019-0.114
						c-0.15-0.397-0.299-0.793-0.449-1.19c-1.227-3.237-2.516-6.451-3.852-9.633c-2.078-4.952-4.326-9.838-6.731-14.647
						c-0.188-0.375-0.373-0.748-0.562-1.123c-0.211-0.414-0.414-0.829-0.625-1.241c-0.005-0.007-0.005-0.01-0.01-0.018
						c-0.007,0.008-0.018,0.011-0.026,0.017c-0.097,0.06-0.223,0.077-0.366,0c-0.006-0.002-0.009-0.004-0.013-0.005
						c-3.333-1.782-6.94-2.213-10.492-3.347c-4.209-1.344-8.103-3.198-12.489-4.001c-0.045-0.009-0.027-0.073,0.017-0.066
						c4.677,0.679,8.89,2.445,13.395,3.727c3.143,0.893,6.662,0.952,9.475,2.733c-0.233-0.449-0.471-0.897-0.709-1.345
						c-3.725-7.034-7.824-13.868-12.328-20.418c-0.019-0.029-0.036-0.058-0.056-0.085c-0.018,0.031-0.04,0.059-0.066,0.081
						c-0.105,0.101-0.259,0.141-0.427,0.049c-0.034-0.02-0.071-0.038-0.106-0.055c-6.723-3.704-14.814-6.491-22.369-7.742
						C168.95,405.788,168.968,405.658,169.043,405.665z"/>
				</g>
			</g>
			<g>
				<path style="fill:#F596D1;" d="M406.269,505.262c0.333-0.125,0.677-0.234,1.024-0.337c-0.216-0.109-0.435-0.209-0.654-0.303
					C406.513,504.831,406.393,505.051,406.269,505.262z"/>
				<path style="fill:#F596D1;" d="M419.551,475.852c0.209-3.23,0.614-6.499,0.04-9.711c-0.012-0.068,0.089-0.086,0.105-0.019
					c1.436,5.586,1.551,13.246-0.646,18.853c0.367-0.388,0.733-0.77,1.101-1.152c4.013-8.677,5.965-19.36,2.778-28.144
					c-1.314-3.686-2.533-7.985-5.166-11.007c0.148,3.371-1.656,6.183-2.671,9.241c-1.398,3.788-1.941,8.247-2.214,12.254
					c-0.283,3.436-0.057,7.006,0.701,10.465c0.543,2.407,1.616,4.708,2.202,7.209c0.282,1.084,0.849,2.244,1.192,3.4
					c0.344-0.384,0.687-0.769,1.034-1.147C417.959,482.716,419.332,479.279,419.551,475.852z"/>
				<path style="fill:#F596D1;" d="M446.733,451.97c0.008-0.042,0.074-0.04,0.068,0.006c-0.38,2.676-0.424,5.883-1.109,8.791
					c4.941-7.443,8.251-16.687,6.955-25.203c-0.561-3.875-0.913-8.327-2.902-11.808c-0.516,3.334-2.837,5.738-4.432,8.539
					c-2.112,3.439-3.522,7.704-4.575,11.579c-0.955,3.316-1.431,6.86-1.366,10.403c0.062,2.465,0.659,4.931,0.745,7.497
					c0.076,1.375,0.536,2.938,0.511,4.376c0.673-0.495,1.349-0.985,2.028-1.473C445.043,460.792,445.818,456.452,446.733,451.97z"/>
				<path style="fill:#F596D1;" d="M478.593,429.719c0.025-0.074,0.127-0.033,0.111,0.038c-0.843,3.901-2.911,7.02-4.493,10.625
					c-0.962,2.191-1.854,4.568-3.143,6.638c0.559-0.291,1.115-0.592,1.674-0.878c6.609-6.051,12.066-14.265,12.847-22.876
					c0.381-3.893,1.103-8.304,0.003-12.156c-1.3,3.115-4.127,4.893-6.342,7.229c-2.876,2.836-5.263,6.645-7.213,10.155
					c-1.716,2.99-3.024,6.318-3.811,9.775c-0.53,2.407-0.536,4.946-1.068,7.46c-0.209,1.104-0.185,2.399-0.367,3.594
					c0.955-0.529,1.913-1.052,2.879-1.565C472.721,441.896,476.614,436.014,478.593,429.719z"/>
				<path style="fill:#F596D1;" d="M466.395,451.084c0.375-0.242,0.748-0.506,1.122-0.766c-0.365,0.207-0.726,0.413-1.091,0.621
					L466.395,451.084z"/>
				<path style="fill:#F596D1;" d="M503.571,427.893c2.592-3.014,5.087-6.115,7.512-9.269c0.069-0.093,0.223,0.006,0.153,0.104
					c-2.73,3.918-5.619,7.673-8.78,11.255c-1.652,1.873-3.344,4.028-5.31,5.717c1.532-0.53,3.069-1.039,4.612-1.527
					c6.961-3.796,13.218-9.366,16.169-16.323c1.55-3.589,3.587-7.572,3.716-11.578c-2.189,2.573-5.423,3.399-8.246,4.948
					c-3.607,1.824-7.041,4.719-9.969,7.465c-2.55,2.326-4.814,5.093-6.616,8.144c-1.239,2.131-2.023,4.547-3.297,6.777
					c-0.678,1.253-1.107,2.899-1.935,4.127c1.196-0.459,2.397-0.907,3.605-1.341C497.661,433.348,501,430.881,503.571,427.893z"/>
				<path style="fill:#F596D1;" d="M492.613,438.266c0.034,0.018,0.068,0.047,0.104,0.065c-0.01-0.033-0.012-0.068-0.01-0.104
					C492.676,438.238,492.645,438.253,492.613,438.266z"/>
				<path style="fill:#F596D1;" d="M525.133,444.436c-7.838-6.735-20.066-8.411-30.282-7.05c-0.433,0.166-0.866,0.33-1.298,0.499
					c3.61,0.24,7.31,1.396,10.78,2.303c4.096,1.07,8.024,2.354,11.792,4.304c0.067,0.036,0.01,0.154-0.061,0.122
					c-6.976-3.158-15.252-5.336-22.9-5.992c1.095,0.75,2.081,1.816,3.103,2.536c2.133,1.433,3.905,3.25,5.959,4.608
					c2.971,1.934,6.23,3.408,9.543,4.359c3.845,1.161,8.208,2.231,12.245,2.265c3.218,0.132,6.486-0.561,9.588,0.769
					C531.708,449.629,528.121,446.964,525.133,444.436z"/>
				<path style="fill:#F596D1;" d="M468.726,449.634c0.011,0.007,0.021,0.013,0.03,0.019c-0.003-0.01-0.011-0.018-0.012-0.029
					C468.736,449.628,468.734,449.63,468.726,449.634z"/>
				<path style="fill:#F596D1;" d="M479.079,452.109c4.458,1.437,8.942,2.31,13.208,4.344c0.04,0.019,0.019,0.082-0.023,0.064
					c-4.092-1.769-8.36-2.391-12.607-3.612c-3.584-1.031-6.822-2.676-10.583-3.047c0.994,0.738,1.903,1.708,2.846,2.373
					c2.135,1.432,3.905,3.25,5.959,4.607c2.971,1.935,6.232,3.409,9.545,4.362c3.845,1.158,8.21,2.229,12.246,2.26
					c3.218,0.133,6.484-0.559,9.588,0.77c-1.895-3.53-5.484-6.194-8.471-8.722c-7.707-6.624-19.662-8.352-29.768-7.117
					c-0.447,0.241-0.894,0.481-1.337,0.725C473.011,449.199,475.969,451.105,479.079,452.109z"/>
				<path style="fill:#F596D1;" d="M443.023,466.07c5.4-1.115,11.79,1.36,16.908,2.276c0.14,0.026,0.13,0.243-0.018,0.224
					c-3.108-0.434-6.204-1.004-9.325-1.351c-2.652-0.296-5.151-0.169-7.745-0.003c0.902,0.578,1.774,1.266,2.639,1.735
					c2.283,1.177,4.256,2.774,6.459,3.883c3.173,1.574,6.582,2.657,9.985,3.218c3.953,0.702,8.41,1.258,12.425,0.82
					c3.215-0.245,6.377-1.318,9.612-0.356c-2.291-3.288-6.17-5.512-9.429-7.675c-8.428-5.679-20.504-6.002-30.398-3.594
					c-0.345,0.246-0.689,0.493-1.034,0.74C443.074,466.016,443.049,466.042,443.023,466.07z"/>
				<path style="fill:#F596D1;" d="M425.549,485.78c3.966,0.259,7.949,0.266,11.92,0.507c0.064,0.003,0.055,0.099-0.007,0.097
					c-3.466-0.014-6.925,0.393-10.394,0.305c-2.557-0.064-4.961-0.246-7.355,0.51c1.054,0.487,2.082,1.152,3.079,1.556
					c2.405,0.91,4.543,2.274,6.857,3.125c3.332,1.205,6.841,1.898,10.284,2.07c4.008,0.251,8.504,0.294,12.441-0.594
					c3.163-0.606,6.188-2.029,9.509-1.44c-2.65-3.005-6.754-4.782-10.235-6.559c-9.105-4.734-21.284-3.621-30.886-0.027
					c-0.195,0.213-0.393,0.425-0.586,0.641C421.888,485.502,423.869,485.671,425.549,485.78z"/>
				<path style="fill:#F596D1;" d="M407.293,504.925c2.948-0.873,6.324-0.965,9.266-0.976c4.58-0.018,9.03,0.561,13.548,1.253
					c0.029,0.004,0.027,0.051-0.004,0.049c-4.141-0.429-8.369-0.64-12.534-0.521c-2.963,0.085-5.722,0.604-8.528,1.11
					c0.329,0.173,0.657,0.337,0.981,0.466c2.403,0.908,4.545,2.274,6.854,3.127c3.334,1.204,6.845,1.895,10.288,2.066
					c4.006,0.251,8.5,0.296,12.439-0.594c3.165-0.603,6.188-2.028,9.511-1.439c-2.652-3.003-6.756-4.779-10.237-6.559
					c-9.225-4.795-21.603-3.592-31.26,0.113c-0.326,0.533-0.658,1.061-0.979,1.601C406.858,504.716,407.076,504.816,407.293,504.925
					z"/>
				<path style="fill:#F596D1;" d="M405.651,503.789c-0.685-3.368-1.347-6.632-2.222-9.983c-0.96-3.673-1.645-7.678-3.246-11.132
					c-0.016-0.035,0.036-0.057,0.054-0.023c1.977,3.589,2.901,7.11,4.095,10.99c0.76,2.463,1.937,5.266,2.238,7.982
					c1.35-9.733-0.007-21.01-5.977-28.633c-2.39-3.099-4.884-6.806-8.326-8.86c1.186,3.16,0.347,6.392,0.331,9.613
					c-0.151,4.035,0.719,8.443,1.703,12.336c0.798,3.355,2.126,6.676,3.921,9.731c1.264,2.115,2.999,3.969,4.334,6.165
					c0.688,1.077,1.74,2.136,2.44,3.292C405.207,504.772,405.422,504.278,405.651,503.789z"/>
				<path style="fill:#F596D1;" d="M520.71,429.61c-4.012,0.867-7.978,1.898-11.908,3.051c10.456,2.415,23.839,1.68,32.551-5.041
					c3.115-2.371,6.839-4.842,8.918-8.268c-3.169,1.164-6.396,0.301-9.617,0.263c-4.035-0.177-8.451,0.662-12.348,1.619
					c-3.36,0.776-6.691,2.077-9.757,3.852c-2.125,1.249-3.99,2.97-6.195,4.289c-1.264,0.796-2.498,2.119-3.9,2.755l-0.25,0.151
					c4.11-1.122,8.264-2.096,12.466-2.894C520.813,429.361,520.852,429.578,520.71,429.61z"/>
				<g>
					<path style="fill:#272727;" d="M516.125,444.493c-3.768-1.95-7.696-3.235-11.792-4.304c-3.471-0.907-7.171-2.063-10.78-2.303
						c0.431-0.169,0.864-0.333,1.298-0.499c4.586-1.762,9.237-3.34,13.952-4.725c3.929-1.153,7.896-2.184,11.908-3.051
						c0.142-0.032,0.103-0.249-0.041-0.222c-4.202,0.798-8.357,1.772-12.466,2.894c-2.161,0.587-4.31,1.218-6.444,1.891
						c-1.543,0.488-3.08,0.996-4.612,1.527c1.967-1.689,3.659-3.844,5.31-5.717c3.162-3.582,6.051-7.336,8.78-11.255
						c0.07-0.098-0.084-0.197-0.153-0.104c-2.425,3.154-4.92,6.255-7.512,9.269c-2.571,2.988-5.911,5.455-8.387,8.498
						c-1.208,0.434-2.409,0.882-3.605,1.341c-6.42,2.463-12.707,5.274-18.838,8.41c-0.559,0.286-1.114,0.587-1.674,0.878
						c1.289-2.07,2.181-4.447,3.143-6.638c1.583-3.605,3.65-6.724,4.493-10.625c0.016-0.072-0.086-0.112-0.111-0.038
						c-1.979,6.294-5.872,12.177-8.923,18.038c-0.966,0.513-1.924,1.037-2.879,1.565c-4.807,2.656-9.517,5.488-14.117,8.491
						c-2.591,1.693-5.156,3.421-7.687,5.197c0.292-0.718,0.523-1.471,0.705-2.245c0.685-2.907,0.729-6.115,1.109-8.791
						c0.006-0.046-0.06-0.047-0.068-0.006c-0.915,4.482-1.689,8.823-4.077,12.705c-0.679,0.488-1.354,0.979-2.028,1.473
						c-5.893,4.342-11.561,8.975-16.851,14.06c-1.214,1.166-2.425,2.376-3.625,3.616c-0.368,0.382-0.734,0.763-1.101,1.152
						c2.197-5.607,2.081-13.267,0.646-18.853c-0.016-0.067-0.117-0.049-0.105,0.019c0.574,3.211,0.169,6.481-0.04,9.711
						c-0.22,3.427-1.592,6.863-1.543,10.244c-0.347,0.379-0.69,0.764-1.034,1.147c-3.992,4.487-7.652,9.381-10.388,14.649
						c-0.008-0.092-0.007-0.181-0.017-0.271c-0.3-2.716-1.478-5.519-2.238-7.982c-1.194-3.88-2.118-7.401-4.095-10.99
						c-0.018-0.033-0.07-0.011-0.054,0.023c1.6,3.453,2.286,7.459,3.246,11.132c0.876,3.352,1.537,6.615,2.222,9.983
						c-0.229,0.489-0.444,0.983-0.656,1.478c-0.373,0.872-0.729,1.752-1.045,2.642c-0.131,0.365,0.418,0.654,0.614,0.305
						c0.341-0.607,0.692-1.197,1.036-1.796c1.166-0.171,2.306-0.373,3.44-0.579c2.805-0.506,5.565-1.025,8.528-1.11
						c4.165-0.119,8.393,0.091,12.534,0.521c0.03,0.003,0.033-0.044,0.004-0.049c-4.518-0.692-8.968-1.271-13.548-1.253
						c-2.942,0.01-6.318,0.102-9.266,0.976c-0.346,0.103-0.691,0.212-1.024,0.337c0.124-0.212,0.244-0.431,0.369-0.641
						c0.32-0.541,0.652-1.068,0.979-1.601c3.354-5.49,6.999-10.633,11.165-15.472c0.31-0.131,0.619-0.251,0.93-0.349
						c2.395-0.756,4.799-0.574,7.355-0.51c3.469,0.088,6.928-0.319,10.394-0.305c0.063,0.001,0.071-0.094,0.007-0.097
						c-3.97-0.242-7.953-0.248-11.92-0.507c-1.68-0.109-3.66-0.278-5.375,0.191c0.193-0.216,0.391-0.428,0.586-0.641
						c1.492-1.637,3.03-3.249,4.663-4.82c4.969-4.769,10.324-9.121,15.873-13.209c0.014,0.001,0.023,0.011,0.039,0.011
						c0.508-0.033,1.007-0.064,1.507-0.097c2.594-0.165,5.093-0.293,7.745,0.003c3.121,0.347,6.216,0.917,9.325,1.351
						c0.148,0.02,0.157-0.198,0.018-0.224c-5.117-0.916-11.507-3.391-16.908-2.276c0.027-0.028,0.052-0.054,0.079-0.084
						c0.345-0.247,0.689-0.494,1.034-0.74c2.819-2.01,5.676-3.965,8.555-5.869c4.479-2.963,9.063-5.776,13.735-8.438
						c0.365-0.208,0.726-0.414,1.091-0.621c0.405-0.227,0.805-0.459,1.21-0.684c0.008-0.004,0.01-0.005,0.018-0.01
						c0.001,0.011,0.009,0.019,0.012,0.029c0.047,0.104,0.143,0.187,0.304,0.203c0.006,0.001,0.01,0.002,0.013,0.003
						c3.761,0.37,6.999,2.016,10.583,3.047c4.246,1.221,8.514,1.843,12.607,3.612c0.042,0.018,0.063-0.046,0.023-0.064
						c-4.266-2.034-8.75-2.907-13.208-4.344c-3.11-1.004-6.068-2.91-9.397-2.992c0.443-0.244,0.89-0.484,1.337-0.725
						c7.006-3.779,14.21-7.183,21.594-10.126c0.032-0.013,0.062-0.028,0.094-0.039c-0.002,0.036,0,0.071,0.01,0.104
						c0.032,0.142,0.137,0.261,0.328,0.278c0.039,0.002,0.08,0.008,0.119,0.013c7.648,0.656,15.924,2.834,22.9,5.992
						C516.134,444.647,516.191,444.528,516.125,444.493z"/>
				</g>
			</g>
			<g>
				<path style="fill:none;stroke:#272727;stroke-width:0.75;stroke-miterlimit:10;" d="M440.871,447.612
					c-4.514,5.033-8.136,14.28-10.846,24.48c-3.676,13.838-5.674,29.43-5.941,38.633"/>
				<g id="XMLID_38_">
					<g>
						<path style="fill:#F596D1;" d="M441.377,399.89c0,0-24.67,23.013-2.496,50.388c0,0-8.789-25.646,10.237-38.203
							c0,0-0.619-2.82-3.137-6.096C444.893,404.563,443.275,401.29,441.377,399.89z"/>
						<path style="fill:#D96FB0;" d="M445.981,405.979c2.518,3.276,3.137,6.096,3.137,6.096c1.64-1.082,3.489-2.062,5.565-2.923
							c0,0,1.373,2.988,2.385,7.4c0,0,2.249-1.877,7.437-2.914l0.003-0.012c0,0,0.76-6.881-4.975-13.402
							C459.533,400.224,452.639,400.108,445.981,405.979z"/>
						<path style="fill:#FFB0E1;" d="M449.09,412.05c-19.026,12.557-10.237,38.203-10.237,38.203
							c20.901-6.773,20.452-23.846,18.186-33.726c-1.012-4.412-2.385-7.4-2.385-7.4C452.579,409.988,450.731,410.968,449.09,412.05z
							"/>
						<path style="fill:#F596D1;" d="M438.881,450.278c30.56-3.482,34.611-36.012,34.611-36.012
							c-3.911-0.168-6.504-1.137-8.988-0.628c-5.188,1.038-7.437,2.914-7.437,2.914
							C459.333,426.432,459.782,443.505,438.881,450.278z"/>
					</g>
				</g>
				<polygon style="fill:#D96FB0;" points="437.545,453.264 451.155,448.296 442.611,447.789 442.352,440.576 437.78,445.95 
					431.137,442.008 				"/>
				<path style="fill:#F596D1;" d="M467.404,472.006c-11.547,14.037-23.656,12.04-40.095,12.355
					C435.945,473.233,453.718,469.965,467.404,472.006z"/>
				<path style="fill:#F596D1;" d="M406.754,441.098c16.55,7.513,17.761,19.726,22.327,35.521
					C416.095,471.163,408.331,454.844,406.754,441.098z"/>
			</g>
		</g>
		<g style="clip-path:url(#SVGID_00000125561338874549601250000011374163999683392436_);">
			<path style="opacity:0.15;fill:#07111E;" d="M470.815,1023.435c0,12.868-60.754,23.301-135.697,23.301
				c-74.944,0-135.697-10.433-135.697-23.301c0-12.869,60.753-23.302,135.697-23.302
				C410.061,1000.133,470.815,1010.566,470.815,1023.435z"/>
			<path style="fill:#DE7769;" d="M250.202,643.877c0,0,15.267,55.978,21.628,100.507c6.361,44.528-11.45,77.607,10.178,131.041
				c21.628,53.434,29.262,104.324,29.262,104.324l23.536,8.906c0,0,9.542-91.602,8.27-209.92
				c-1.272-118.319-11.45-165.391-11.45-165.391L250.202,643.877z"/>
			<g>
				<path style="fill:#59284E;" d="M306.896,967.927c0,0,10.068,13.298,30.333,13.565c0,0-0.249,23.722-5.187,25.29
					c-4.938,1.568-58.765,11.102-67.691,2.692C255.425,1001.063,306.896,967.927,306.896,967.927z"/>
				<path style="fill:#FFFFFF;" d="M287.559,981.038c-14.126,10.338-29.878,23.716-24.485,28.689
					c4.527,4.175,20.146,4.03,35.532,2.615C299.218,1001.521,293.193,988.873,287.559,981.038z"/>
				<path style="fill:#FFFFFF;" d="M262.868,1007.431c0,0,32.32,5.521,72.562-3.698l-1.842,8.037c0,0-48.527,8.64-70.486,1.056
					L262.868,1007.431z"/>
				<path style="fill:#FFFFFF;" d="M319.919,993.814c-0.357,2.978,1.769,5.682,4.747,6.039c2.978,0.357,5.682-1.769,6.038-4.747
					c0.357-2.978-1.769-5.682-4.747-6.038C322.979,988.711,320.275,990.836,319.919,993.814z"/>
			</g>
			<path style="fill:#DE7769;" d="M323.992,668.05c0,0,1.272,64.884,3.817,86.513c2.544,21.628,38.167,131.041,22.901,223.914
				l30.534,33.078c0,0,5.089-15.267,12.723-66.157c7.633-50.889,50.889-85.24,3.816-190.836c0,0,33.079-78.879,25.445-171.753
				C415.593,489.936,323.992,668.05,323.992,668.05z"/>
			<path style="fill:#59284E;" d="M351.822,975.933c0,0,12.881,13.358,35.305,10.973c0,0,2.862,26.24-2.386,28.625
				c-5.248,2.385-63.453,20.038-74.426,11.927C299.342,1019.348,351.822,975.933,351.822,975.933z"/>
			<path style="fill:#FFFFFF;" d="M332.194,992.974c-14.238,13.289-29.871,30.153-23.255,34.934
				c5.554,4.015,22.789,1.787,39.6-1.811C347.783,1014.06,339.454,1000.885,332.194,992.974z"/>
			<path style="fill:#FFFFFF;" d="M308.407,1025.398c0,0,36.436,1.825,79.674-13.684l-0.972,9.122c0,0-52.468,15.964-77.731,10.491
				L308.407,1025.398z"/>
			<circle style="fill:#FFFFFF;" cx="375.676" cy="1002.808" r="6.043"/>
			<g>
				<path style="fill:#FFFFFF;" d="M374.748,382.432l17.175-69.337l-117.046,22.901l7.634,47.073
					C282.511,383.068,310.823,399.793,374.748,382.432z"/>
				<path style="fill:#A58AEE;" d="M374.748,382.432c-63.925,17.361-92.237,0.636-92.237,0.636s-69.079,88.748-91.027,266.622
					c0,0,121.395,84.517,309.518,8.182C501.002,657.872,453.627,451.133,374.748,382.432z"/>
			</g>
			<path style="fill:#DE7769;" d="M402.125,234.524l15.159-0.74c0,0,35.486,22.936,46.328,135.53
				c2.647,16.045-12.432,30.99-25.681,24.027c-27.811-19.436-42.491-88.574-42.491-88.574S379.595,248.498,402.125,234.524z"/>
			<path style="fill:#DE7769;" d="M290.833,234.524l-13.729-1.899c0,0-36.915,24.096-47.757,136.69
				c-2.647,16.045,12.432,30.99,25.681,24.027c27.811-19.436,42.491-88.574,42.491-88.574S313.363,248.498,290.833,234.524z"/>
			<path style="fill:#421E3A;" d="M357.972,209.126c0,0,22.856,1.903,33.543,6.652c14.072,6.254,6.986-45.625,6.986-45.625
				l-46.296-5.731L357.972,209.126z"/>
			<path style="fill:#59284E;" d="M303.062,111.714c0,0,33.679-14.448,60.07-65.858c0,0-50.369-47.546-88.596,18.629
				c-6.116,10.587-6.648,21.539-4.002,32.035c0.47,3.761,0.174,11.405-8.701,16.243c-12.114,6.604-20.616,20.709-10.055,35.801
				c10.561,15.093-17.19,28.162-11.677,42.675c8.306,21.865,72.018,30.67,96.373,12.84c11.571-8.471-6.005-35.19-23.35-58.861
				L303.062,111.714z"/>
			<path style="fill:#DE7769;" d="M408.462,231.67c0,0-6.213,67.328-71.246,69.978c-65.034,2.65-51.996-71.246-51.996-71.246
				l37.989-9.234l0.029-6.084l0.171-40.938l40.539-38.259l0.541-0.513l2.437,85.524L408.462,231.67z"/>
			<path style="fill:#DE7769;" d="M365.343,185.146c-4.004,6.298-8.678,12.226-14.406,17.014c-7.053,5.885-15.945,9.96-24.794,12.24
				c-0.969,0.256-1.924,0.484-2.907,0.684l0.171-40.938l40.539-38.259L365.343,185.146z"/>
			<path style="fill:#DE7769;" d="M373.43,72.791c0,0-69.419-40.478-92.419,34.685c-14.815,48.416,1.531,84.271,29.259,94.26
				c21.566,7.769,47.938-1.195,68.854-32.755C424.375,100.704,418.123,74.763,373.43,72.791z"/>
			<path style="fill:#59284E;" d="M321.784,58.815c0,0-11.838,40.01,23.627,51.965s20.532,40.021,20.532,40.021
				s-9.288,13.744,11.823,32.781c9.739,8.782-3.31,24.679,11.17,33.399c14.397,8.67,63.316-11.458,69.762-37.53
				c6.446-26.072-26.453-33.025-24.295-42.034c2.158-9.009,11.824-30.697-9.693-46.563c-19.371-14.284-7.867-33.914-27.352-46.573
				C388.919,38.798,349.142,9.847,321.784,58.815z"/>
			<path style="fill:#FFFFFF;" d="M291.417,227.854c0,0-8.588,52.48,40.075,55.343c48.664,2.862,69.337-55.343,69.337-55.343
				s12.723,0.954,21.31,10.019c0,0-21.31,17.334-24.491,61.227c0,0-8.701,59.201-25.24,78.921
				c-19.792,23.598-44.309-53.574-91.806-35.029c-1.494,0.583-10.598,0.3-19.72-9.542c-24.173-26.081,14.313-62.658,14.313-62.658
				l1.908-38.167L291.417,227.854z"/>
			<path style="fill:#59284E;" d="M326.969,107.417c5.431-5.06,18.2-2.83,21.331,4.285c0.452,1.027-0.713,1.744-1.566,1.607
				c-2.964-0.475-5.759-1.812-8.767-2.138c-3.12-0.338-5.948,0.805-8.999,0.793C326.746,111.955,325.266,109.003,326.969,107.417z"
				/>
			<path style="fill:#59284E;" d="M302.948,105.69c-5.689-5.06-18.344-2.83-21.113,4.285c-0.4,1.027,0.802,1.744,1.648,1.607
				c2.94-0.475,5.667-1.812,8.658-2.138c3.103-0.338,5.989,0.805,9.039,0.793C303.403,110.228,304.731,107.276,302.948,105.69z"/>
			<path style="fill:#272727;" d="M344.346,129.876c-0.094,3.396-1.743,6.105-3.684,6.051c-1.941-0.054-3.437-2.85-3.343-6.246
				c0.093-3.396,1.743-6.105,3.683-6.051C342.943,123.684,344.44,126.481,344.346,129.876z"/>
			<path style="fill:#272727;" d="M304.764,129.876c-0.094,3.396-1.743,6.105-3.684,6.051c-1.941-0.054-3.437-2.85-3.343-6.246
				c0.093-3.396,1.743-6.105,3.683-6.051C303.36,123.684,304.857,126.481,304.764,129.876z"/>
			<path style="fill:none;stroke:#272727;stroke-miterlimit:10;" d="M309.13,122.342c0.254,1.539,0.379,2.94,0.379,4.257
				c0,12.709-10.801,17.298-10.801,21.079c0,2.954,5.56,4.649,8.558,5.845"/>
			<path style="fill:none;stroke:#272727;stroke-miterlimit:10;" d="M306.644,164.147c3.395,1.06,7.301,1.666,11.253,1.666
				c5.64,0,11.373-1.234,15.849-4.141"/>
			<g>
				<path style="fill:#DE7769;" d="M314.399,300.126c-12.299-15.917-70.413,39.614-83.072,65.441
					c-3.2,6.529-4.664,16.21,7.342,25.952C272.805,419.219,321.4,309.187,314.399,300.126z"/>
			</g>
			<g>
				<path style="fill:#DE7769;" d="M284.155,308.095c4.912-7.046,8.96-13.666,16.682-17.426c7.723-3.76,21.101-7.63,27.873-2.346
					c0.09,0.07,5.879,5.262,1.471,6.713c-2.609,0.859-5.753-1.432-8.036,0.096c-1.288,0.862-1.575,2.72-1.07,4.185
					c0.505,1.465,1.619,2.625,2.711,3.725c5.763,5.806,11.796,11.345,18.073,16.591c1.437,1.201,3.041,2.799,2.634,4.627
					c-0.354,1.588-2.19,2.474-3.811,2.332c-1.621-0.143-3.063-1.042-4.435-1.917c0.878,2.021-1.581,4.197-3.771,3.951
					c-2.189-0.245-3.898-1.936-5.419-3.531c0.949,1.832-1.378,3.963-3.421,3.672c-2.043-0.292-3.558-1.981-4.885-3.561
					c-2.914,1.406-6.989-0.914-9.336-3.081c-1.756,3.051-3.39,6.525-4.352,9.785"/>
				<g>
					<line style="fill:none;stroke:#272727;stroke-miterlimit:10;" x1="319.886" y1="308.825" x2="336.247" y2="324.674"/>
					<line style="fill:none;stroke:#272727;stroke-miterlimit:10;" x1="314.356" y1="311.99" x2="327.057" y2="325.095"/>
					<line style="fill:none;stroke:#272727;stroke-miterlimit:10;" x1="310.316" y1="316.749" x2="318.751" y2="325.206"/>
				</g>
			</g>
			<g>
				<path style="fill:#DE7769;" d="M378.559,300.126c12.299-15.917,70.413,39.614,83.072,65.441c3.2,6.529,4.664,16.21-7.342,25.952
					C420.153,419.219,371.558,309.187,378.559,300.126z"/>
			</g>
			<g>
				<path style="fill:#DE7769;" d="M408.803,308.095c-4.912-7.046-8.96-13.666-16.682-17.426c-7.723-3.76-21.101-7.63-27.873-2.346
					c-0.09,0.07-5.879,5.262-1.471,6.713c2.609,0.859,5.753-1.432,8.036,0.096c1.288,0.862,1.575,2.72,1.07,4.185
					c-0.505,1.465-1.619,2.625-2.711,3.725c-5.763,5.806-11.796,11.345-18.073,16.591c-1.437,1.201-3.041,2.799-2.634,4.627
					c0.354,1.588,2.19,2.474,3.811,2.332c1.621-0.143,3.063-1.042,4.435-1.917c-0.878,2.021,1.581,4.197,3.771,3.951
					c2.189-0.245,3.898-1.936,5.419-3.531c-0.949,1.832,1.378,3.963,3.421,3.672c2.043-0.292,3.558-1.981,4.885-3.561
					c2.914,1.406,6.989-0.914,9.336-3.081c1.756,3.051,3.39,6.525,4.352,9.785"/>
				<g>
					<path style="fill:#DE7769;" d="M378.559,300.126c12.299-15.917,70.413,39.614,83.072,65.441
						c3.2,6.529,4.664,16.21-7.342,25.952C420.153,419.219,371.558,309.187,378.559,300.126z"/>
				</g>
				<path style="fill:#DE7769;" d="M408.803,308.095c-4.912-7.046-8.96-13.666-16.682-17.426"/>
				<g>
					<line style="fill:none;stroke:#272727;stroke-miterlimit:10;" x1="373.072" y1="308.825" x2="356.711" y2="324.674"/>
					<line style="fill:none;stroke:#272727;stroke-miterlimit:10;" x1="378.602" y1="311.99" x2="365.901" y2="325.095"/>
					<line style="fill:none;stroke:#272727;stroke-miterlimit:10;" x1="382.642" y1="316.749" x2="374.207" y2="325.206"/>
				</g>
			</g>
			<path style="fill:none;stroke:#272727;stroke-miterlimit:10;" d="M443.226,340.134c-5.249-5.926-10.795-11.594-16.594-16.982
				c-2.9-2.694-5.866-5.317-8.909-7.848c-2.355-1.958-5.096-3.687-7.44-5.757c-2.622-2.315-3.992-5.183-6.033-7.945
				c-1.851-2.505-3.849-4.919-6.199-6.976"/>
			<path style="fill:none;stroke:#272727;stroke-miterlimit:10;" d="M400.285,458.208c0,0,54.485,141.235,71.804,210.339"/>
			<path style="fill:none;stroke:#272727;stroke-miterlimit:10;" d="M361.246,450.962l3.703,16.107
				c0,0,33.737,146.753,41.207,217.83"/>
			<path style="fill:none;stroke:#272727;stroke-miterlimit:10;" d="M331.016,450.962l0.867,16.505c0,0,7.931,151.035,2.951,222.142
				"/>
			<path style="fill:none;stroke:#272727;stroke-miterlimit:10;" d="M297.677,454.981l-1.152,16.487c0,0-9.587,137.22-22.28,210.623
				"/>
			<path style="fill:none;stroke:#272727;stroke-miterlimit:10;" d="M263.277,453.286l-3.84,16.075
				c0,0-28.576,119.623-40.038,195.068"/>
			<path style="fill:#D943B2;" d="M346.243,300.153c0,0,1.651-5.149,6.488-5.149c3.841,0,6.488,3.316,6.488,7.193
				c0,4.697-3.975,9.553-12.976,14.717c-9.001-5.165-12.976-10.02-12.976-14.717c0-3.877,2.647-7.193,6.488-7.193
				C344.592,295.004,346.243,300.153,346.243,300.153z"/>
			<path style="fill:none;stroke:#272727;stroke-miterlimit:10;" d="M258.579,330.676c0,0-9.795,10.273-13.428,14.8"/>
		</g>
		<g style="clip-path:url(#SVGID_00000125561338874549601250000011374163999683392436_);">
			<g>
				<path style="fill:#FFFFFF;" d="M387.883,59.401c-0.082,0.228-3.808-11.512-13.85-5.717c-10.042,5.795-1.176,14.392,7.037,14.011
					c0,0-7.444,4.186-3.758,9.61c3.687,5.423,12.029,4.178,12.039-3.773c0,0,3.387,9.478,12.577,7.566
					c9.19-1.912,3.578-13.841-5.648-14.664c0,0,13.956-5.53,8.028-12.437C398.38,47.088,390.233,50.542,387.883,59.401z"/>
				<path style="fill:#F0C956;" d="M390.454,62.969c1.088,0.773,1.748,2.276,1.358,3.647c-0.536,1.885-2.921,3.05-4.86,2.197
					c-1.761-0.775-2.644-2.992-1.84-4.67C386.037,62.216,388.802,61.795,390.454,62.969z"/>
			</g>
			<g>
				<path style="fill:#FFFFFF;" d="M371.76,78.154c-0.171,0.056,4.998-7.484-2.978-10.715c-7.976-3.23-8.959,5.883-4.986,10.515
					c0,0-5.849-2.445-7.339,2.189c-1.491,4.634,3.047,8.947,7.705,5.322c0,0-4,6.309,1.315,10.814c5.315,4.505,9.733-4.225,6.003-10
					c0,0,9.608,5.642,10.943-0.98C383.758,78.676,378.018,75.485,371.76,78.154z"/>
				<path style="fill:#F0C956;" d="M370.846,81.288c0.044,0.99-0.534,2.062-1.514,2.46c-1.347,0.547-3.118-0.317-3.504-1.841
					c-0.35-1.384,0.543-2.913,1.893-3.209C369.27,78.359,370.779,79.785,370.846,81.288z"/>
			</g>
			<g>
				<path style="fill:#FFFFFF;" d="M406.682,85.778c-0.07,0.132-1.318-7.342-7.937-4.686c-6.619,2.656-1.968,8.662,3.067,9.144
					c0,0-4.897,1.902-3.124,5.525c1.773,3.623,6.962,3.59,7.659-1.251c0,0,1.238,6.066,7.001,5.701
					c5.762-0.365,3.383-8.117-2.164-9.421c0,0,8.979-2.154,5.97-6.875C414.145,79.194,408.884,80.588,406.682,85.778z"/>
				<path style="fill:#F0C956;" d="M407.938,88.175c0.595,0.565,0.867,1.538,0.51,2.339c-0.49,1.101-2.044,1.603-3.15,0.915
					c-1.005-0.625-1.35-2.052-0.714-3.004C405.313,87.332,407.033,87.316,407.938,88.175z"/>
			</g>
		</g>
		<g style="clip-path:url(#SVGID_00000125561338874549601250000011374163999683392436_);">
			<g>
				<path style="fill:#FFFFFF;" d="M424.164,451.233c-0.091,0.172-1.717-9.568-10.344-6.107c-8.626,3.461-2.565,11.289,3.997,11.917
					c0,0-6.382,2.479-4.071,7.201c2.311,4.722,9.073,4.679,9.982-1.63c0,0,1.614,7.906,9.124,7.43
					c7.51-0.476,4.409-10.579-2.82-12.278c0,0,11.702-2.807,7.781-8.96C433.891,442.651,427.034,444.468,424.164,451.233z"/>
				<path style="fill:#F0C956;" d="M425.801,454.356c0.776,0.737,1.129,2.004,0.665,3.048c-0.639,1.435-2.664,2.089-4.106,1.193
					c-1.309-0.815-1.759-2.674-0.931-3.915C422.38,453.258,424.622,453.237,425.801,454.356z"/>
			</g>
			<g>
				<g>
					<path style="fill:#FFFFFF;" d="M445.738,473.449c-0.143-0.011,5.958-3.983,1.075-8.79c-4.883-4.808-8.384,1.597-6.873,6.216
						c0,0-3.557-3.581-6.066-0.627c-2.509,2.954-0.485,7.511,4.046,6.264c0,0-4.866,3.422-2.329,8.356
						c2.537,4.934,8.449-0.142,7.464-5.527c0,0,5.348,7.079,8.35,2.614C454.405,477.49,451.155,473.392,445.738,473.449z"/>
					<path style="fill:#F0C956;" d="M444.11,475.476c-0.269,0.742-1.021,1.354-1.864,1.348c-1.158-0.008-2.197-1.184-2.017-2.422
						c0.164-1.125,1.288-1.978,2.371-1.784C443.843,472.84,444.519,474.349,444.11,475.476z"/>
				</g>
				<g>
					<path style="fill:#FFFFFF;" d="M450.36,495.152c-0.102-0.067,6.065-0.527,4.397-6.105c-1.668-5.577-6.895-2.241-7.66,1.816
						c0,0-1.183-4.122-4.26-2.949c-3.077,1.173-3.434,5.393,0.449,6.319c0,0-5.023,0.557-5.153,5.268
						c-0.13,4.711,6.348,3.351,7.818-1.061c0,0,1.086,7.459,5.147,5.362C455.16,501.707,454.416,497.326,450.36,495.152z"/>
					<path style="fill:#F0C956;" d="M448.319,495.995c-0.504,0.442-1.314,0.59-1.939,0.241c-0.859-0.48-1.152-1.78-0.51-2.629
						c0.582-0.77,1.768-0.945,2.495-0.358C449.198,493.924,449.084,495.324,448.319,495.995z"/>
				</g>
			</g>
		</g>
		<g style="clip-path:url(#SVGID_00000125561338874549601250000011374163999683392436_);">
			<g>
				<path style="fill:#FFFFFF;" d="M219.715,498.927c0.193-0.021-6.957,6.789,0.747,11.989c7.704,5.199,10.784-4.21,7.623-9.994
					c0,0,5.632,3.893,8.245-0.669c2.612-4.562-1.217-10.136-6.949-7.349c0,0,5.639-5.771,1.032-11.721
					c-4.607-5.95-11.231,2.285-8.582,9.223c0,0-8.889-8.113-11.783-1.414C207.155,495.689,212.506,500.346,219.715,498.927z"/>
				<path style="fill:#F0C956;" d="M221.383,495.82c0.175-1.056,1.026-2.059,2.15-2.26c1.546-0.276,3.224,1.033,3.29,2.73
					c0.06,1.541-1.227,2.957-2.719,2.967C222.393,499.268,221.118,497.424,221.383,495.82z"/>
			</g>
			<g>
				<g>
					<path style="fill:#FFFFFF;" d="M230.18,468.405c0.093,0.109-7.031-1.39-6.971,5.462c0.06,6.852,7.062,4.793,9.256,0.456
						c0,0-0.012,5.048,3.851,4.729c3.863-0.319,5.649-4.973,1.562-7.292c0,0,5.862,1.015,7.552-4.269
						c1.69-5.284-6.08-5.868-9.188-1.361c0,0,1.216-8.789-4.063-7.749C226.9,459.422,226.306,464.618,230.18,468.405z"/>
					<path style="fill:#F0C956;" d="M232.764,468.12c0.714-0.335,1.679-0.237,2.271,0.362c0.814,0.824,0.719,2.39-0.284,3.139
						c-0.911,0.68-2.309,0.49-2.938-0.412C231.091,470.174,231.679,468.629,232.764,468.12z"/>
				</g>
				<g>
					<path style="fill:#FFFFFF;" d="M242.241,449.779c0.025,0.119-4.665-3.912-7.424,1.214c-2.759,5.126,3.297,6.458,6.704,4.126
						c0,0-2.074,3.753,0.932,5.096c3.006,1.343,6.24-1.391,4.146-4.79c0,0,3.949,3.154,7.369-0.089
						c3.42-3.243-2.125-6.856-6.283-4.772c0,0,4.501-6.046,0.146-7.431C243.474,441.749,240.906,445.374,242.241,449.779z"/>
					<path style="fill:#F0C956;" d="M244.281,450.624c0.669,0.043,1.347,0.511,1.543,1.199c0.269,0.946-0.443,2.074-1.496,2.221
						c-0.957,0.134-1.919-0.58-2.019-1.509C242.195,451.468,243.265,450.559,244.281,450.624z"/>
				</g>
			</g>
		</g>
	</g>
	<g>
		<path style="fill:#FFFFFF;" d="M199.19,99.445c-0.724,7.202-2.877,12.968-7.364,16.302c-0.321,0.238-0.284,0.744,0.077,0.915
			c5.079,2.416,6.712,11.538,7.232,15.69c0.043,0.344,0.535,0.36,0.602,0.021c0.822-4.135,3.062-13.257,7.196-15.679
			c0.33-0.193,0.353-0.668,0.045-0.894c-4.535-3.327-6.707-9.115-7.435-16.355C199.522,99.227,199.212,99.227,199.19,99.445z"/>
		<path style="fill:#FFFFFF;" d="M450.858,103.374c-0.552,5.488-2.192,9.881-5.611,12.422c-0.244,0.182-0.216,0.567,0.059,0.697
			c3.87,1.841,5.114,8.791,5.511,11.955c0.033,0.262,0.408,0.275,0.459,0.016c0.626-3.151,2.333-10.101,5.483-11.947
			c0.251-0.147,0.269-0.509,0.034-0.681c-3.455-2.535-5.111-6.946-5.665-12.462C451.112,103.208,450.875,103.208,450.858,103.374z"
			/>
		<path style="fill:#FFFFFF;" d="M211.64,167.213c-0.854,8.495-3.394,15.297-8.686,19.23c-0.378,0.281-0.335,0.877,0.091,1.08
			c5.991,2.85,7.917,13.61,8.531,18.508c0.051,0.406,0.631,0.425,0.711,0.024c0.97-4.878,3.612-15.638,8.489-18.495
			c0.389-0.228,0.416-0.788,0.053-1.055c-5.349-3.924-7.912-10.753-8.77-19.293C212.033,166.956,211.666,166.956,211.64,167.213z"/>
		<path style="fill:#FFFFFF;" d="M463.683,64.621c-0.854,8.495-3.394,15.297-8.686,19.23c-0.378,0.281-0.335,0.877,0.091,1.08
			c5.991,2.85,7.917,13.61,8.531,18.508c0.051,0.406,0.631,0.425,0.711,0.024c0.97-4.878,3.612-15.638,8.489-18.495
			c0.389-0.228,0.416-0.788,0.053-1.055c-5.349-3.924-7.912-10.753-8.77-19.293C464.075,64.364,463.708,64.364,463.683,64.621z"/>
		<path style="fill:#FFFFFF;" d="M229.95,146.857c-0.535,5.319-2.125,9.577-5.438,12.039c-0.237,0.176-0.21,0.549,0.057,0.676
			c3.751,1.784,4.957,8.521,5.341,11.587c0.032,0.254,0.395,0.266,0.445,0.015c0.607-3.054,2.262-9.79,5.315-11.579
			c0.244-0.143,0.261-0.493,0.033-0.66c-3.349-2.457-4.953-6.732-5.491-12.078C230.196,146.696,229.966,146.696,229.95,146.857z"/>
		<path style="fill:#FFFFFF;" d="M472.971,146.857c-0.535,5.319-2.125,9.577-5.438,12.039c-0.237,0.176-0.21,0.549,0.057,0.676
			c3.751,1.784,4.957,8.521,5.341,11.587c0.032,0.254,0.395,0.266,0.445,0.015c0.607-3.054,2.262-9.79,5.315-11.579
			c0.244-0.143,0.261-0.493,0.033-0.66c-3.349-2.457-4.953-6.732-5.491-12.078C473.217,146.696,472.987,146.696,472.971,146.857z"/>
		<path style="fill:#FFFFFF;" d="M448.825,224.92c-0.535,5.319-2.125,9.577-5.438,12.039c-0.237,0.176-0.21,0.549,0.057,0.676
			c3.751,1.784,4.957,8.521,5.341,11.587c0.032,0.254,0.395,0.266,0.445,0.015c0.607-3.054,2.262-9.79,5.315-11.579
			c0.244-0.143,0.261-0.493,0.033-0.66c-3.349-2.457-4.953-6.732-5.491-12.078C449.07,224.759,448.841,224.759,448.825,224.92z"/>
		<path style="fill:#FFFFFF;" d="M186.454,153.071c-3.845,0-3.852,5.976,0,5.976C190.299,159.047,190.306,153.071,186.454,153.071z"
			/>
		<path style="fill:#FFFFFF;" d="M240.91,115.951c-2.878,0-2.883,4.473,0,4.473C243.788,120.423,243.793,115.951,240.91,115.951z"/>
		<path style="fill:#FFFFFF;" d="M433.783,48.166c-7.285,0-7.297,11.322,0,11.322C441.068,59.488,441.08,48.166,433.783,48.166z"/>
		<path style="fill:#FFFFFF;" d="M443.225,59.956c-2.878,0-2.883,4.473,0,4.473C446.103,64.428,446.108,59.956,443.225,59.956z"/>
		<path style="fill:#FFFFFF;" d="M470.98,126.416c-2.878,0-2.883,4.473,0,4.473C473.858,130.888,473.863,126.416,470.98,126.416z"/>
		<path style="fill:#FFFFFF;" d="M202.886,217.029c-0.424-1.554-1.841-2.749-3.528-2.755c-2.773-0.009-4.271,2.711-3.247,5.192
			c1.414,3.427,6.481,2.698,6.883-1.086C203.044,217.914,203.003,217.458,202.886,217.029z"/>
		<path style="fill:none;stroke:#FFFFFF;stroke-width:0.75;stroke-miterlimit:10;" d="M186.441,135.783
			c-0.41-3.897-7.346,0.52-2.702,2.119C185.187,138.4,186.606,137.356,186.441,135.783z"/>
		<path style="fill:none;stroke:#FFFFFF;stroke-width:0.75;stroke-miterlimit:10;" d="M214.521,136.544
			c-0.27,0.151-0.522,0.312-0.751,0.478c-2.897,2.103-2.438,7.346,1.325,8.379c4.409,1.211,7.996-3.552,6.601-7.681
			C220.644,134.608,216.897,135.211,214.521,136.544z"/>
		<path style="fill:none;stroke:#FFFFFF;stroke-width:0.75;stroke-miterlimit:10;" d="M464.946,217.687
			c-0.27,0.151-0.522,0.312-0.751,0.478c-2.897,2.103-2.438,7.346,1.325,8.379c4.409,1.211,7.996-3.552,6.601-7.681
			C471.07,215.752,467.322,216.355,464.946,217.687z"/>
		<path style="fill:none;stroke:#FFFFFF;stroke-width:0.75;stroke-miterlimit:10;" d="M473.611,97.536
			c-0.27,0.151-0.522,0.312-0.751,0.478c-2.897,2.103-2.438,7.346,1.325,8.379c4.409,1.211,7.996-3.552,6.601-7.681
			C479.734,95.6,475.987,96.203,473.611,97.536z"/>
		<path style="fill:#FFFFFF;" d="M26.166,210.281c-0.552,5.488-2.192,9.881-5.611,12.422c-0.244,0.182-0.216,0.567,0.059,0.697
			c3.87,1.841,5.114,8.791,5.511,11.955c0.033,0.262,0.408,0.275,0.459,0.016c0.626-3.151,2.333-10.101,5.483-11.947
			c0.251-0.147,0.269-0.509,0.034-0.681c-3.455-2.535-5.111-6.946-5.665-12.462C26.42,210.115,26.183,210.115,26.166,210.281z"/>
		<path style="fill:#FFFFFF;" d="M38.991,171.528c-0.854,8.495-3.394,15.297-8.686,19.23c-0.378,0.281-0.335,0.877,0.091,1.08
			c5.991,2.85,7.917,13.61,8.531,18.508c0.051,0.406,0.631,0.425,0.711,0.024c0.97-4.878,3.612-15.638,8.489-18.495
			c0.389-0.228,0.416-0.788,0.053-1.055c-5.349-3.924-7.912-10.753-8.77-19.293C39.383,171.271,39.017,171.271,38.991,171.528z"/>
		<path style="fill:#FFFFFF;" d="M48.279,253.764c-0.535,5.319-2.125,9.577-5.438,12.039c-0.237,0.176-0.21,0.549,0.057,0.676
			c3.751,1.784,4.957,8.521,5.341,11.587c0.032,0.254,0.395,0.266,0.445,0.015c0.607-3.054,2.262-9.79,5.315-11.579
			c0.244-0.143,0.261-0.493,0.033-0.66c-3.349-2.457-4.953-6.732-5.491-12.078C48.525,253.603,48.295,253.603,48.279,253.764z"/>
		<path style="fill:#FFFFFF;" d="M46.289,233.323c-2.878,0-2.883,4.473,0,4.473C49.167,237.795,49.171,233.323,46.289,233.323z"/>
		<path style="fill:none;stroke:#FFFFFF;stroke-width:0.75;stroke-miterlimit:10;" d="M48.919,204.443
			c-0.27,0.151-0.522,0.312-0.751,0.478c-2.897,2.103-2.438,7.346,1.325,8.379c4.409,1.211,7.996-3.552,6.601-7.681
			C55.042,202.507,51.295,203.11,48.919,204.443z"/>
	</g>
</g>
</svg>
